<?xml version="1.0" encoding="utf-8"?>
<!-- Generator: Adobe Illustrator 22.0.1, SVG Export Plug-In . SVG Version: 6.00 Build 0)  -->
<svg version="1.1" id="Layer_1" xmlns="http://www.w3.org/2000/svg" xmlns:xlink="http://www.w3.org/1999/xlink" x="0px" y="0px"
	 viewBox="0 0 64 64" style="enable-background:new 0 0 64 64;" xml:space="preserve">
<style type="text/css">
	.st0{fill:#FFFFFF;}
</style>
<path class="st0" d="M5,8c-1.7,0-3,1.4-3,3v42c0,1.6,1.3,3,3,3h54c1.7,0,3-1.4,3-3V11c0-1.6-1.3-3-3-3H5z M5,10h54c0.6,0,1,0.5,1,1
	v42c0,0.6-0.4,1-1,1H5c-0.6,0-1-0.5-1-1V11C4,10.4,4.4,10,5,10z M7,12c-0.6,0-1,0.4-1,1v2c0,0.6,0.4,1,1,1s1-0.4,1-1v-2
	C8,12.4,7.6,12,7,12z M12,12c-0.6,0-1,0.4-1,1v2c0,0.6,0.4,1,1,1s1-0.4,1-1v-2C13,12.4,12.6,12,12,12z M17,12c-0.6,0-1,0.4-1,1v2
	c0,0.6,0.4,1,1,1s1-0.4,1-1v-2C18,12.4,17.6,12,17,12z M22,12c-0.6,0-1,0.4-1,1v2c0,0.6,0.4,1,1,1s1-0.4,1-1v-2
	C23,12.4,22.6,12,22,12z M27,12c-0.6,0-1,0.4-1,1v2c0,0.6,0.4,1,1,1s1-0.4,1-1v-2C28,12.4,27.6,12,27,12z M32,12c-0.6,0-1,0.4-1,1v2
	c0,0.6,0.4,1,1,1c0.6,0,1-0.4,1-1v-2C33,12.4,32.6,12,32,12z M37,12c-0.6,0-1,0.4-1,1v2c0,0.6,0.4,1,1,1s1-0.4,1-1v-2
	C38,12.4,37.6,12,37,12z M42,12c-0.6,0-1,0.4-1,1v2c0,0.6,0.4,1,1,1s1-0.4,1-1v-2C43,12.4,42.6,12,42,12z M47,12c-0.6,0-1,0.4-1,1v2
	c0,0.6,0.4,1,1,1s1-0.4,1-1v-2C48,12.4,47.6,12,47,12z M52,12c-0.6,0-1,0.4-1,1v2c0,0.6,0.4,1,1,1s1-0.4,1-1v-2
	C53,12.4,52.6,12,52,12z M57,12c-0.6,0-1,0.4-1,1v2c0,0.6,0.4,1,1,1s1-0.4,1-1v-2C58,12.4,57.6,12,57,12z M7,18c-0.6,0-1,0.4-1,1
	s0.4,1,1,1h7h2h2h28h2h3h6c0.6,0,1-0.4,1-1s-0.4-1-1-1H7z M7,44c-0.6,0-1,0.4-1,1s0.4,1,1,1h50c0.6,0,1-0.4,1-1s-0.4-1-1-1h-6h-3h-2
	H18h-2h-2H7z M7,48c-0.6,0-1,0.4-1,1v2c0,0.6,0.4,1,1,1s1-0.4,1-1v-2C8,48.4,7.6,48,7,48z M12,48c-0.6,0-1,0.4-1,1v2
	c0,0.6,0.4,1,1,1s1-0.4,1-1v-2C13,48.4,12.6,48,12,48z M17,48c-0.6,0-1,0.4-1,1v2c0,0.6,0.4,1,1,1s1-0.4,1-1v-2
	C18,48.4,17.6,48,17,48z M22,48c-0.6,0-1,0.4-1,1v2c0,0.6,0.4,1,1,1s1-0.4,1-1v-2C23,48.4,22.6,48,22,48z M27,48c-0.6,0-1,0.4-1,1v2
	c0,0.6,0.4,1,1,1s1-0.4,1-1v-2C28,48.4,27.6,48,27,48z M32,48c-0.6,0-1,0.4-1,1v2c0,0.6,0.4,1,1,1c0.6,0,1-0.4,1-1v-2
	C33,48.4,32.6,48,32,48z M37,48c-0.6,0-1,0.4-1,1v2c0,0.6,0.4,1,1,1s1-0.4,1-1v-2C38,48.4,37.6,48,37,48z M42,48c-0.6,0-1,0.4-1,1v2
	c0,0.6,0.4,1,1,1s1-0.4,1-1v-2C43,48.4,42.6,48,42,48z M47,48c-0.6,0-1,0.4-1,1v2c0,0.6,0.4,1,1,1s1-0.4,1-1v-2
	C48,48.4,47.6,48,47,48z M52,48c-0.6,0-1,0.4-1,1v2c0,0.6,0.4,1,1,1s1-0.4,1-1v-2C53,48.4,52.6,48,52,48z M57,48c-0.6,0-1,0.4-1,1v2
	c0,0.6,0.4,1,1,1s1-0.4,1-1v-2C58,48.4,57.6,48,57,48z M18.2,29.8c0.8,0,1.4-0.2,1.9-0.7c0.5-0.4,0.8-1.1,0.8-1.9
	c0-0.6-0.2-1.2-0.7-1.6c-0.4-0.4-1-0.7-1.8-0.7c-0.5,0-0.9,0.1-1.2,0.2c-0.3,0.1-0.6,0.3-0.8,0.5c-0.2,0.2-0.4,0.5-0.5,0.9
	c-0.2,0.4-0.3,0.7-0.5,1c-0.1,0.2-0.2,0.3-0.4,0.4S14.5,28,14.3,28c-0.3,0-0.6-0.1-0.9-0.4c-0.3-0.3-0.4-0.6-0.4-1s0.1-0.9,0.4-1.3
	c0.3-0.5,0.6-0.9,1.1-1.3s1.1-0.8,1.8-1c0.7-0.3,1.6-0.4,2.5-0.4c0.8,0,1.5,0.1,2.2,0.3c0.7,0.2,1.2,0.5,1.7,0.9s0.8,0.9,1.1,1.4
	c0.2,0.5,0.4,1.1,0.4,1.7c0,0.8-0.2,1.5-0.5,2.1c-0.4,0.6-0.9,1.1-1.5,1.7c0.6,0.3,1.2,0.7,1.6,1.2c0.4,0.4,0.8,0.9,1,1.4
	s0.3,1.1,0.3,1.7c0,0.7-0.1,1.4-0.4,2.1c-0.3,0.7-0.7,1.3-1.3,1.8c-0.6,0.5-1.3,1-2.1,1.3c-0.8,0.3-1.7,0.5-2.6,0.5
	c-1,0-1.9-0.2-2.6-0.5c-0.8-0.3-1.4-0.8-1.9-1.3s-0.9-1.1-1.1-1.6c-0.3-0.6-0.4-1-0.4-1.4c0-0.5,0.2-0.8,0.5-1.1s0.7-0.4,1.1-0.4
	c0.2,0,0.4,0.1,0.7,0.2c0.2,0.1,0.4,0.3,0.4,0.5c0.4,1.1,0.9,1.9,1.4,2.5c0.5,0.5,1.2,0.8,2.1,0.8c0.5,0,1-0.1,1.5-0.4
	c0.5-0.2,0.9-0.6,1.2-1.1c0.3-0.5,0.5-1,0.5-1.7c0-0.9-0.3-1.7-0.8-2.2s-1.3-0.8-2.2-0.8c-0.2,0-0.4,0-0.8,0c-0.3,0-0.6,0-0.7,0
	c-0.4,0-0.8-0.1-1-0.3s-0.4-0.5-0.4-0.9s0.1-0.7,0.4-0.9c0.3-0.2,0.7-0.4,1.3-0.4L18.2,29.8L18.2,29.8z M33,38.4c0.8,0,1.4-0.3,2-1
	c0.5-0.7,0.8-1.5,0.8-2.6c0-0.7-0.1-1.4-0.4-1.9c-0.2-0.5-0.6-0.9-1-1.2s-0.9-0.4-1.4-0.4s-0.9,0.1-1.4,0.4
	c-0.4,0.3-0.8,0.6-1.1,1.1c-0.3,0.5-0.4,1.1-0.4,1.8c0,1.1,0.3,2,0.8,2.7C31.5,38.1,32.2,38.4,33,38.4 M29.9,31
	c0.5-0.7,1.1-1.1,1.7-1.4s1.3-0.5,2.1-0.5c0.7,0,1.4,0.1,2.1,0.4c0.6,0.3,1.2,0.7,1.6,1.2c0.5,0.5,0.8,1.1,1.1,1.9
	c0.3,0.7,0.4,1.5,0.4,2.2c0,1.1-0.3,2.2-0.8,3.1c-0.5,0.9-1.2,1.6-2.1,2.2c-0.9,0.5-1.9,0.8-3.1,0.8c-1.3,0-2.4-0.3-3.4-1
	s-1.7-1.6-2.2-2.9c-0.5-1.3-0.8-2.9-0.8-4.7c0-1.5,0.2-2.9,0.5-4.1s0.7-2.2,1.3-3c0.6-0.8,1.3-1.4,2.1-1.8c0.8-0.4,1.7-0.6,2.8-0.6
	c1,0,1.9,0.2,2.6,0.6c0.8,0.4,1.3,0.9,1.7,1.5s0.6,1.2,0.6,1.7c0,0.3-0.1,0.6-0.4,0.9c-0.2,0.3-0.6,0.4-0.9,0.4
	c-0.3,0-0.6-0.1-0.9-0.3c-0.3-0.2-0.5-0.5-0.6-0.9c-0.2-0.5-0.5-0.9-0.9-1.2S33.6,25,33.1,25c-0.4,0-0.8,0.1-1.2,0.4
	c-0.4,0.2-0.8,0.6-1,1C30.3,27.3,30,28.8,29.9,31 M33,38.4c0.8,0,1.4-0.3,2-1c0.5-0.7,0.8-1.5,0.8-2.6c0-0.7-0.1-1.4-0.4-1.9
	c-0.2-0.5-0.6-0.9-1-1.2s-0.9-0.4-1.4-0.4s-0.9,0.1-1.4,0.4c-0.4,0.3-0.8,0.6-1.1,1.1c-0.3,0.5-0.4,1.1-0.4,1.8c0,1.1,0.3,2,0.8,2.7
	C31.5,38.1,32.2,38.4,33,38.4L33,38.4z M29.9,31c0.5-0.7,1.1-1.1,1.7-1.4s1.3-0.5,2.1-0.5c0.7,0,1.4,0.1,2.1,0.4
	c0.6,0.3,1.2,0.7,1.6,1.2c0.5,0.5,0.8,1.1,1.1,1.9c0.3,0.7,0.4,1.5,0.4,2.2c0,1.1-0.3,2.2-0.8,3.1c-0.5,0.9-1.2,1.6-2.1,2.2
	c-0.9,0.5-1.9,0.8-3.1,0.8c-1.3,0-2.4-0.3-3.4-1s-1.7-1.6-2.2-2.9c-0.5-1.3-0.8-2.9-0.8-4.7c0-1.5,0.2-2.9,0.5-4.1s0.7-2.2,1.3-3
	c0.6-0.8,1.3-1.4,2.1-1.8c0.8-0.4,1.7-0.6,2.8-0.6c1,0,1.9,0.2,2.6,0.6c0.8,0.4,1.3,0.9,1.7,1.5s0.6,1.2,0.6,1.7
	c0,0.3-0.1,0.6-0.4,0.9c-0.2,0.3-0.6,0.4-0.9,0.4c-0.3,0-0.6-0.1-0.9-0.3c-0.3-0.2-0.5-0.5-0.6-0.9c-0.2-0.5-0.5-0.9-0.9-1.2
	S33.6,25,33.1,25c-0.4,0-0.8,0.1-1.2,0.4c-0.4,0.2-0.8,0.6-1,1C30.3,27.3,30,28.8,29.9,31L29.9,31z M49.3,31.6
	c0-1.5-0.1-2.7-0.3-3.6s-0.5-1.6-0.9-2.1s-1-0.7-1.7-0.7c-1.1,0-1.8,0.5-2.2,1.6s-0.6,2.7-0.6,4.9c0,1.5,0.1,2.7,0.3,3.7
	s0.5,1.7,0.9,2.2s1,0.7,1.7,0.7s1.3-0.3,1.7-0.8s0.7-1.2,0.9-2.2C49.2,34.4,49.3,33.2,49.3,31.6 M52.6,31.9c0,1.3-0.1,2.4-0.2,3.4
	c-0.2,0.9-0.5,1.8-0.9,2.6c-0.5,0.9-1.2,1.7-2.1,2.2c-0.9,0.5-1.8,0.8-2.9,0.8c-1.2,0-2.3-0.3-3.3-1S41.5,38.3,41,37
	c-0.2-0.7-0.4-1.4-0.5-2.2s-0.2-1.7-0.2-2.6c0-1.2,0.1-2.3,0.2-3.3c0.1-1,0.3-1.8,0.6-2.5c0.5-1.2,1.2-2,2.1-2.6
	c0.9-0.6,2-0.9,3.2-0.9c0.8,0,1.6,0.1,2.2,0.4s1.3,0.7,1.8,1.2s0.9,1.2,1.3,1.9C52.3,27.6,52.6,29.4,52.6,31.9 M49.3,31.6
	c0-1.5-0.1-2.7-0.3-3.6s-0.5-1.6-0.9-2.1s-1-0.7-1.7-0.7c-1.1,0-1.8,0.5-2.2,1.6s-0.6,2.7-0.6,4.9c0,1.5,0.1,2.7,0.3,3.7
	s0.5,1.7,0.9,2.2s1,0.7,1.7,0.7s1.3-0.3,1.7-0.8s0.7-1.2,0.9-2.2C49.2,34.4,49.3,33.2,49.3,31.6L49.3,31.6z M52.6,31.9
	c0,1.3-0.1,2.4-0.2,3.4c-0.2,0.9-0.5,1.8-0.9,2.6c-0.5,0.9-1.2,1.7-2.1,2.2c-0.9,0.5-1.8,0.8-2.9,0.8c-1.2,0-2.3-0.3-3.3-1
	S41.5,38.3,41,37c-0.2-0.7-0.4-1.4-0.5-2.2s-0.2-1.7-0.2-2.6c0-1.2,0.1-2.3,0.2-3.3c0.1-1,0.3-1.8,0.6-2.5c0.5-1.2,1.2-2,2.1-2.6
	c0.9-0.6,2-0.9,3.2-0.9c0.8,0,1.6,0.1,2.2,0.4s1.3,0.7,1.8,1.2s0.9,1.2,1.3,1.9C52.3,27.6,52.6,29.4,52.6,31.9L52.6,31.9z"/>
</svg>
