<?xml version="1.0" encoding="utf-8"?>
<!-- Generator: Adobe Illustrator 22.0.1, SVG Export Plug-In . SVG Version: 6.00 Build 0)  -->
<svg version="1.1" id="Capa_1" xmlns="http://www.w3.org/2000/svg" xmlns:xlink="http://www.w3.org/1999/xlink" x="0px" y="0px"
	 viewBox="0 0 350.4 512" style="enable-background:new 0 0 350.4 512;" xml:space="preserve">
<style type="text/css">
	.st0{fill:#FFFFFF;}
</style>
<path class="st0" d="M350.4,487.5l-14.8-376.8c-0.5-12.7-10.8-22.6-23.5-22.6h-57.2v-8.5c0-43.9-35.7-79.6-79.6-79.6
	S95.7,35.7,95.7,79.6v41.8c-9.3,3.1-16,11.9-16,22.3c0,13,10.6,23.5,23.5,23.5s23.5-10.6,23.5-23.5c0-10.4-6.7-19.2-16-22.3v-18.3
	h104.7c4.1,0,7.5-3.4,7.5-7.5s-3.4-7.5-7.5-7.5H110.6v-8.5c0-35.6,29-64.6,64.6-64.6s64.6,29,64.6,64.6v41.8
	c-9.3,3.1-16,11.9-16,22.3c0,13,10.6,23.5,23.5,23.5c12.9,0,23.5-10.6,23.5-23.5c0-10.4-6.7-19.2-16-22.3v-18.3H312
	c4.6,0,8.3,3.6,8.5,8.2l14.8,376.8c0.1,2.3-0.8,4.6-2.4,6.2c-1.6,1.7-3.8,2.6-6.1,2.6H23.5c-2.3,0-4.5-0.9-6.2-2.6
	c-1.6-1.7-2.5-3.9-2.4-6.2l14.8-376.8c0.2-4.6,3.9-8.2,8.5-8.2h32.7c4.1,0,7.5-3.4,7.5-7.5s-3.4-7.5-7.5-7.5H38.3
	c-12.7,0-23,9.9-23.5,22.6L0,487.5c-0.3,6.5,2.1,12.6,6.6,17.2s10.5,7.2,17,7.2h303.3c6.5,0,12.5-2.6,17-7.2
	C348.3,500.1,350.6,494,350.4,487.5z M103.1,152.3c-4.7,0-8.5-3.8-8.5-8.5s3.8-8.5,8.5-8.5s8.5,3.8,8.5,8.5S107.8,152.3,103.1,152.3
	z M247.3,152.3c-4.7,0-8.5-3.8-8.5-8.5s3.8-8.5,8.5-8.5s8.5,3.8,8.5,8.5C255.9,148.5,252.1,152.3,247.3,152.3z"/>
<g>
	<path class="st0" d="M280,413.1c-15.4,0-28-12.6-28-28V385c17.3-18.2,28-42.8,28-69.9c0-55.9-45.5-101.5-101.5-101.5
		C122.6,213.6,77,259.1,77,315.1s45.5,101.5,101.5,101.5c25.7,0,49.2-9.6,67-25.4c2.9,16.4,17.2,28.9,34.4,28.9c2,0,3.5-1.6,3.5-3.5
		C283.5,414.6,281.9,413.1,280,413.1L280,413.1z M84.1,315.1c0-52.1,42.4-94.4,94.4-94.4s94.5,42.4,94.5,94.4s-42.4,94.5-94.5,94.5
		S84.1,367.2,84.1,315.1L84.1,315.1z"/>
	<path class="st0" d="M178.5,227.7c-48.2,0-87.5,39.2-87.5,87.5c0,48.2,39.2,87.5,87.5,87.5c48.2,0,87.5-39.2,87.5-87.5
		S226.7,227.7,178.5,227.7L178.5,227.7z M178.5,395.6c-44.4,0-80.5-36.1-80.5-80.5s36.1-80.5,80.5-80.5s80.5,36.1,80.5,80.5
		S222.9,395.6,178.5,395.6L178.5,395.6z"/>
	<path class="st0" d="M220.5,290.6c-1.2,0-2.3,0.1-3.4,0.3l-0.1-0.1l-2.6,0.7h-0.1c-1.3,0.3-2.5,0.8-3.7,1.3c-0.1,0-0.1,0.1-0.2,0.1
		c-1.2,0.5-2.3,1.1-3.4,1.9c0,0-0.1,0-0.1,0.1c-1,0.7-1.9,1.4-2.8,2.2c-0.2,0.2-0.4,0.3-0.5,0.5c-0.8,0.8-1.6,1.6-2.3,2.5
		c-0.2,0.2-0.3,0.4-0.4,0.6c-0.7,0.9-1.3,1.9-1.9,2.9v0.1c-0.6,1-1,2.1-1.5,3.3c-0.1,0.2-0.2,0.4-0.2,0.6c-0.4,1.1-0.6,2.2-0.9,3.4
		c0,0.2-0.1,0.4-0.1,0.7c-0.2,1.2-0.3,2.4-0.3,3.7c0,1.3,0.1,2.5,0.3,3.7c0,0.2,0.1,0.4,0.1,0.6c0.2,1.2,0.5,2.3,0.9,3.4
		c0.1,0.2,0.1,0.4,0.2,0.6c0.4,1.1,0.9,2.2,1.5,3.3v0.1c0.6,1,1.2,2,1.9,2.9c0.2,0.2,0.3,0.4,0.4,0.6c0.7,0.9,1.5,1.7,2.3,2.5
		c0.2,0.2,0.4,0.3,0.5,0.5c0.9,0.8,1.8,1.5,2.8,2.2l0.1,0.1c1.1,0.7,2.2,1.3,3.4,1.8c0.1,0,0.1,0.1,0.2,0.1c1.2,0.5,2.4,1,3.7,1.3
		h0.1l2.6,0.7l0.1-0.2c1.1,0.2,2.3,0.3,3.4,0.3c13.5,0,24.5-11,24.5-24.5C245,301.6,234,290.6,220.5,290.6L220.5,290.6z M217,315.1
		c0,5.5-1.2,11-3.5,16c-0.9-0.4-1.7-0.9-2.5-1.4c-0.3-0.2-0.5-0.4-0.8-0.6c-0.6-0.4-1.1-0.9-1.6-1.4c-0.2-0.2-0.5-0.4-0.7-0.7
		c-0.6-0.6-1.1-1.3-1.6-2c-0.1-0.1-0.2-0.2-0.3-0.4c-0.5-0.8-1-1.7-1.4-2.6c-0.1-0.3-0.2-0.5-0.3-0.8c-0.3-0.7-0.5-1.4-0.7-2.2
		c-0.1-0.3-0.1-0.6-0.2-0.9c-0.2-1-0.3-2.1-0.3-3.2s0.1-2.1,0.3-3.1c0.1-0.3,0.1-0.6,0.2-0.9c0.2-0.8,0.4-1.5,0.7-2.2
		c0.1-0.3,0.2-0.5,0.3-0.8c0.4-0.9,0.9-1.8,1.4-2.7c0.1-0.1,0.2-0.2,0.3-0.4c0.5-0.7,1-1.3,1.6-2c0.2-0.2,0.5-0.4,0.7-0.7
		c0.5-0.5,1.1-0.9,1.6-1.4c0.3-0.2,0.5-0.4,0.8-0.6c0.8-0.5,1.6-1,2.5-1.4C215.8,304.1,217,309.6,217,315.1L217,315.1z M220.5,332.6
		L220.5,332.6c2.3-5.5,3.5-11.5,3.5-17.5s-1.3-12-3.6-17.5c0,0,0,0,0.1,0c9.6,0,17.5,7.9,17.5,17.5
		C238,324.8,230.1,332.6,220.5,332.6L220.5,332.6z"/>
	<path class="st0" d="M155.7,330.3c0.2-0.2,0.3-0.4,0.4-0.6c0.7-0.9,1.4-1.9,1.9-2.9v-0.1c0.6-1,1-2.1,1.4-3.3
		c0.1-0.2,0.2-0.4,0.2-0.6c0.4-1.1,0.7-2.2,0.9-3.4c0-0.2,0.1-0.4,0.1-0.6c0.2-1.2,0.3-2.5,0.3-3.7c0-1.3-0.1-2.5-0.3-3.7
		c0-0.2-0.1-0.4-0.1-0.7c-0.2-1.2-0.5-2.3-0.9-3.4c-0.1-0.2-0.2-0.4-0.2-0.6c-0.4-1.1-0.9-2.2-1.4-3.3v-0.1c-0.5-1-1.2-2-1.9-2.9
		c-0.2-0.2-0.3-0.4-0.4-0.6c-0.7-0.9-1.5-1.7-2.3-2.5c-0.2-0.2-0.4-0.3-0.5-0.5c-0.9-0.8-1.8-1.5-2.8-2.2c0,0-0.1,0-0.1-0.1
		c-1.1-0.7-2.2-1.3-3.4-1.9c-0.1,0-0.1,0-0.2-0.1c-1.2-0.5-2.4-1-3.7-1.3h-0.1l-2.6-0.7l-0.1,0.1c-1.1-0.2-2.2-0.3-3.4-0.3
		c-13.5,0-24.5,11-24.5,24.5s11,24.5,24.5,24.5c1.2,0,2.3-0.1,3.4-0.3l0.1,0.2l2.6-0.7h0.1c1.3-0.3,2.5-0.8,3.7-1.3
		c0.1,0,0.1,0,0.2-0.1c1.2-0.5,2.3-1.1,3.4-1.9h0.1c1-0.7,1.9-1.4,2.8-2.2c0.2-0.2,0.4-0.3,0.5-0.5C154.2,332,155,331.2,155.7,330.3
		L155.7,330.3z M153.7,318.3c0,0.3-0.1,0.6-0.2,0.9c-0.2,0.8-0.4,1.5-0.7,2.2c-0.1,0.3-0.2,0.5-0.3,0.8c-0.4,0.9-0.9,1.8-1.4,2.6
		c-0.1,0.1-0.2,0.2-0.3,0.4c-0.5,0.7-1,1.4-1.6,2c-0.2,0.2-0.5,0.5-0.7,0.7c-0.5,0.5-1.1,0.9-1.6,1.4c-0.3,0.2-0.5,0.4-0.8,0.6
		c-0.8,0.5-1.6,1-2.5,1.4c-2.3-5-3.5-10.5-3.5-16s1.2-11,3.5-16c0.9,0.4,1.7,0.8,2.5,1.4c0.3,0.2,0.5,0.4,0.8,0.6
		c0.6,0.4,1.1,0.9,1.6,1.4c0.2,0.2,0.5,0.4,0.7,0.7c0.6,0.6,1.1,1.3,1.6,2c0.1,0.1,0.2,0.2,0.3,0.4c0.6,0.8,1,1.7,1.4,2.7
		c0.1,0.3,0.2,0.5,0.3,0.8c0.3,0.7,0.5,1.4,0.7,2.2c0.1,0.3,0.2,0.6,0.2,0.9c0.2,1,0.3,2.1,0.3,3.1S153.9,317.3,153.7,318.3
		L153.7,318.3z M119,315.1c0-9.6,7.8-17.5,17.5-17.5l0,0c-2.3,5.5-3.5,11.5-3.5,17.5s1.2,12,3.5,17.5l0,0
		C126.9,332.6,119,324.8,119,315.1L119,315.1z"/>
	<path class="st0" d="M154.2,276.6l0.7,2.6v0.1c0.3,1.3,0.8,2.5,1.3,3.7c0,0.1,0.1,0.1,0.1,0.2c0.5,1.2,1.1,2.3,1.9,3.4l0.1,0.1
		c0.7,1,1.4,1.9,2.2,2.8c0.2,0.2,0.3,0.4,0.5,0.5c0.8,0.8,1.6,1.6,2.5,2.3c0.2,0.2,0.4,0.3,0.6,0.4c0.9,0.7,1.9,1.4,2.9,1.9h0.1
		c1,0.6,2.1,1,3.3,1.4c0.2,0.1,0.4,0.2,0.6,0.2c1.1,0.4,2.2,0.7,3.4,0.9c0.2,0,0.4,0.1,0.7,0.1c1.2,0.2,2.4,0.3,3.7,0.3
		s2.5-0.1,3.7-0.3c0.2,0,0.4-0.1,0.6-0.1c1.2-0.2,2.3-0.5,3.4-0.9c0.2-0.1,0.4-0.2,0.6-0.2c1.1-0.4,2.2-0.9,3.3-1.4c0,0,0,0,0.1,0
		c1-0.6,2-1.2,2.9-1.9c0.2-0.2,0.4-0.3,0.6-0.4c0.9-0.7,1.7-1.5,2.5-2.3c0.2-0.2,0.3-0.3,0.5-0.5c0.8-0.9,1.5-1.8,2.2-2.8l0.1-0.1
		c0.7-1.1,1.3-2.2,1.9-3.4c0-0.1,0.1-0.1,0.1-0.2c0.5-1.2,1-2.5,1.3-3.7c0,0,0-0.1,0.1-0.1l0.7-2.6l-0.2-0.1
		c0.2-1.1,0.3-2.2,0.3-3.4c0-13.5-11-24.5-24.5-24.5s-24.5,11-24.5,24.5c0,1.2,0.1,2.3,0.3,3.4L154.2,276.6z M193.2,282.6
		c-0.2,0.3-0.4,0.5-0.6,0.8c-0.4,0.6-0.9,1.1-1.4,1.6c-0.2,0.2-0.4,0.5-0.7,0.7c-0.6,0.6-1.3,1.1-2,1.6c-0.1,0.1-0.2,0.2-0.4,0.3
		c-0.8,0.5-1.7,1-2.6,1.4c-0.3,0.1-0.5,0.2-0.8,0.3c-0.7,0.3-1.4,0.5-2.2,0.7c-0.3,0.1-0.6,0.2-0.9,0.2c-1,0.2-2.1,0.3-3.2,0.3
		c-1.1,0-2.1-0.1-3.1-0.3c-0.3,0-0.6-0.1-0.9-0.2c-0.8-0.2-1.5-0.4-2.2-0.7c-0.3-0.1-0.5-0.2-0.8-0.3c-0.9-0.4-1.8-0.9-2.7-1.4
		c-0.1-0.1-0.2-0.2-0.4-0.3c-0.7-0.5-1.3-1-2-1.6c-0.2-0.2-0.4-0.5-0.7-0.7c-0.5-0.5-0.9-1.1-1.4-1.6c-0.2-0.3-0.4-0.5-0.6-0.8
		c-0.5-0.8-1-1.6-1.4-2.5c10-4.6,22-4.6,32,0C194.1,281,193.7,281.8,193.2,282.6L193.2,282.6z M178.5,255.7
		c9.7,0,17.5,7.8,17.5,17.5l0,0c-11.1-4.5-23.9-4.5-35,0l0,0C161,263.5,168.9,255.7,178.5,255.7L178.5,255.7z"/>
	<path class="st0" d="M202.9,353.6l-0.7-2.6v-0.1c-0.3-1.3-0.8-2.5-1.3-3.7c0,0,0-0.1-0.1-0.2c-0.5-1.2-1.1-2.3-1.9-3.4v-0.1
		c-0.7-1-1.4-1.9-2.2-2.8c-0.2-0.2-0.3-0.4-0.5-0.5c-0.8-0.8-1.6-1.6-2.5-2.3c-0.2-0.1-0.4-0.3-0.6-0.4c-0.9-0.7-1.9-1.3-2.9-1.9
		c0,0,0,0-0.1-0.1c-1-0.6-2.1-1-3.3-1.4c-0.2-0.1-0.4-0.2-0.6-0.2c-1.1-0.4-2.2-0.6-3.4-0.9c-0.2,0-0.4-0.1-0.7-0.1
		c-1.2-0.2-2.4-0.3-3.7-0.3s-2.5,0.1-3.7,0.3c-0.2,0-0.4,0.1-0.7,0.1c-1.2,0.2-2.3,0.5-3.4,0.9c-0.2,0.1-0.4,0.1-0.6,0.2
		c-1.1,0.4-2.2,0.9-3.3,1.5h-0.1c-1,0.6-2,1.2-2.9,1.9c-0.2,0.1-0.4,0.3-0.6,0.4c-0.9,0.7-1.7,1.5-2.5,2.3c-0.2,0.2-0.3,0.4-0.5,0.5
		c-0.8,0.9-1.5,1.8-2.2,2.8c0,0,0,0.1-0.1,0.1c-0.7,1.1-1.3,2.2-1.9,3.4c0,0.1,0,0.1-0.1,0.2c-0.5,1.2-1,2.5-1.3,3.7v0.1l-0.7,2.6
		l0.1,0.1c-0.2,1.1-0.3,2.3-0.3,3.4c0,13.5,11,24.5,24.5,24.5s24.5-11,24.5-24.5c0-1.2-0.1-2.3-0.3-3.4L202.9,353.6z M163.9,347.6
		c0.2-0.3,0.4-0.5,0.6-0.8c0.4-0.6,0.9-1.1,1.4-1.6c0.2-0.2,0.4-0.5,0.7-0.7c0.6-0.6,1.3-1.1,2-1.6c0.1-0.1,0.2-0.2,0.4-0.3
		c0.8-0.6,1.7-1,2.7-1.4c0.3-0.1,0.5-0.2,0.8-0.3c0.7-0.3,1.4-0.5,2.2-0.7c0.3-0.1,0.6-0.2,0.9-0.2c1-0.2,2.1-0.3,3.1-0.3
		c1.1,0,2.1,0.1,3.2,0.3c0.3,0.1,0.6,0.1,0.9,0.2c0.8,0.2,1.5,0.4,2.2,0.7c0.3,0.1,0.5,0.2,0.8,0.3c0.9,0.4,1.8,0.9,2.6,1.4
		c0.1,0.1,0.2,0.2,0.4,0.3c0.7,0.5,1.4,1,2,1.6c0.2,0.2,0.5,0.5,0.7,0.7c0.5,0.5,0.9,1.1,1.4,1.6c0.2,0.3,0.4,0.5,0.6,0.8
		c0.5,0.8,1,1.6,1.4,2.5c-10,4.6-22,4.6-32,0C162.9,349.2,163.3,348.4,163.9,347.6L163.9,347.6z M178.5,374.6
		c-9.6,0-17.5-7.9-17.5-17.5c0,0,0,0,0-0.1c5.5,2.3,11.5,3.6,17.5,3.6s12-1.3,17.5-3.6c0,0,0,0,0,0.1
		C196,366.7,188.2,374.6,178.5,374.6L178.5,374.6z"/>
</g>
</svg>
