<?xml version="1.0" encoding="utf-8"?>
<!-- Generator: Adobe Illustrator 20.0.0, SVG Export Plug-In . SVG Version: 6.00 Build 0)  -->
<svg version="1.1" id="Layer_1" xmlns="http://www.w3.org/2000/svg" xmlns:xlink="http://www.w3.org/1999/xlink" x="0px" y="0px"
	 viewBox="0 0 147.4 116.4" style="enable-background:new 0 0 147.4 116.4;" xml:space="preserve">
<style type="text/css">
	.st0{fill:#EB008B;}
	.st1{fill:none;stroke:#EB008B;stroke-width:14;stroke-miterlimit:10;}
	.st2{fill:none;stroke:#EB008B;stroke-width:14;stroke-linecap:round;stroke-miterlimit:10;}
	.st3{fill:none;stroke:#EC1C24;stroke-width:14;stroke-linecap:round;stroke-miterlimit:10;}
	.st4{fill:#00A69C;}
	.st5{fill:#231F20;}
</style>
<path class="st0" d="M49.1,80.9c1.3,0,2.6,0.3,3.8,1c1.2,0.7,2.2,1.6,2.9,2.9c0.7,1.3,1.1,2.6,1.1,3.9c0,1.9-0.7,3.8-2.2,5.5
	c0,0,0,0,0,0c-1.7,1.5-3.6,2.2-5.6,2.2c-1.9,0-3.8-0.7-5.6-2.2c-1.5-1.8-2.2-3.6-2.2-5.6c0-1.4,0.3-2.7,1-3.9
	c0.7-1.3,1.7-2.2,2.9-2.9C46.5,81.2,47.8,80.9,49.1,80.9z"/>
<path class="st0" d="M62.1,62.7c1.3,0,2.6,0.3,3.8,1c1.2,0.7,2.2,1.6,2.9,2.9c0.7,1.3,1.1,2.6,1.1,3.9c0,1.9-0.7,3.8-2.2,5.5
	c0,0,0,0,0,0c-1.7,1.5-3.6,2.2-5.6,2.2c-1.9,0-3.8-0.7-5.6-2.2c-1.5-1.8-2.2-3.6-2.2-5.6c0-1.4,0.3-2.7,1-3.9
	c0.7-1.3,1.7-2.2,2.9-2.9C59.5,63,60.8,62.7,62.1,62.7z"/>
<circle class="st1" cx="31.9" cy="31.8" r="25"/>
<line class="st2" x1="54" y1="43.7" x2="21" y2="89.2"/>
<line class="st2" x1="53.1" y1="18.7" x2="76.1" y2="50.5"/>
<path class="st0" d="M147.4,31.8c0-17.6-14.3-32-32-32c-5.4,0-10.7,1.4-15.4,4c-3.4,1.9-4.6,6.1-2.7,9.5c1.9,3.4,6.1,4.6,9.5,2.7
	c2.6-1.5,5.6-2.2,8.7-2.2c9.9,0,18,8.1,18,18c0,2.9-0.7,5.7-2,8.2L98.6,85.1c-2.3,3.1-1.6,7.5,1.6,9.8c1.2,0.9,2.7,1.3,4.1,1.3
	c2.2,0,4.3-1,5.7-2.9l32.8-45.2c0.3-0.3,0.5-0.7,0.7-1.1C146,42.4,147.4,37.1,147.4,31.8z"/>
<path class="st3" d="M57.3,24.6"/>
<path class="st4" d="M104.8,37.4L79.9,3.1C77.7,0,73.3-1,70.2,1.2c-3.3,2.2-4,6.7-1.7,9.9l27,37.2L68.5,85.4
	c-2.3,3.1-1.6,7.5,1.6,9.8c1.2,0.9,2.7,1.3,4.1,1.3c2.2,0,4.3-1,5.7-2.9l25.1-34.5l4.8-6.6c1.8-2.5,1.8-5.9,0-8.4L104.8,37.4z"/>
<g>
	<path class="st5" d="M21.5,106.2h2l-2.1,9.9h-2.5l-2.2-9.9h2l1.2,6.4c0.1,0.5,0.2,1,0.2,1.7c0,0,0,0.1,0,0.3c0,0.3,0.1,0.4,0.1,0.6
		h0c0-0.1,0-0.3,0.1-0.6c0-0.1,0-0.2,0-0.3c0.1-0.7,0.1-1.2,0.2-1.7L21.5,106.2z"/>
	<path class="st5" d="M24.8,107.8v-1.6h1.7v1.6H24.8z M24.8,116.1v-7.5h1.7v7.5H24.8z"/>
	<path class="st5" d="M31.5,115.3L31.5,115.3c-0.2,0.4-0.4,0.6-0.6,0.8c-0.2,0.1-0.5,0.2-0.9,0.2c-0.3,0-0.6-0.1-0.9-0.2
		c-0.2-0.1-0.4-0.3-0.6-0.6c-0.1-0.2-0.2-0.5-0.3-0.8c-0.1-0.3-0.1-0.6-0.1-0.9v-2.7c0-1,0.2-1.7,0.5-2c0.3-0.4,0.7-0.6,1.3-0.6
		c0.4,0,0.7,0.1,0.9,0.2c0.2,0.1,0.4,0.4,0.6,0.7h0c0-0.2-0.1-0.4-0.1-0.7v-2.6h1.7v9.9h-1.7V115.3z M31.5,111.4c0,0,0-0.1,0-0.1
		l0-0.1c0-0.2,0-0.3,0-0.5s-0.1-0.3-0.1-0.4c-0.1-0.1-0.1-0.2-0.3-0.3c-0.1-0.1-0.2-0.1-0.4-0.1c-0.3,0-0.5,0.1-0.6,0.3
		c-0.1,0.2-0.1,0.5-0.2,0.9c0,0.1,0,0.2,0,0.3v2.5c0,0.4,0.1,0.7,0.2,0.9c0.1,0.2,0.3,0.3,0.5,0.3c0.6,0,0.8-0.4,0.8-1.3V111.4z"/>
	<path class="st5" d="M34.8,111.2c0-1.8,0.8-2.8,2.5-2.8c0.6,0,1.1,0.1,1.4,0.2c0.4,0.1,0.6,0.4,0.8,0.6c0.2,0.3,0.3,0.6,0.4,1
		c0.1,0.4,0.1,0.9,0.1,1.4v1h-3.4v1.1c0,0.5,0.1,0.8,0.2,0.9c0.2,0.2,0.4,0.2,0.7,0.2c0.3,0,0.5-0.1,0.6-0.3
		c0.1-0.2,0.2-0.6,0.2-1.1H40c0,0.9-0.2,1.6-0.6,2c-0.4,0.5-1,0.7-1.8,0.7c-1,0-1.7-0.2-2.1-0.7s-0.6-1.3-0.6-2.4V111.2z
		 M38.3,111.4v-0.6c0-0.4-0.1-0.6-0.2-0.8c-0.1-0.1-0.4-0.2-0.7-0.2c-0.4,0-0.6,0.1-0.7,0.3c-0.1,0.2-0.1,0.6-0.1,1v0.3H38.3z"/>
	<path class="st5" d="M42.7,116.1c-0.3-0.1-0.6-0.4-0.8-0.6c-0.2-0.3-0.3-0.7-0.4-1.1c-0.1-0.5-0.1-1-0.1-1.7c0-0.8,0-1.4,0.1-1.9
		c0-0.5,0.1-0.9,0.3-1.2c0.2-0.4,0.4-0.6,0.8-0.8c0.4-0.2,0.9-0.3,1.5-0.3c0.6,0,1.1,0.1,1.5,0.3c0.4,0.2,0.6,0.5,0.8,0.8
		s0.3,0.8,0.3,1.2c0,0.5,0.1,1.1,0.1,1.9c0,0.7,0,1.3-0.1,1.7c-0.1,0.4-0.2,0.8-0.4,1.1c-0.2,0.3-0.4,0.5-0.8,0.6s-0.8,0.2-1.3,0.2
		C43.5,116.3,43.1,116.3,42.7,116.1z M43.2,113.7c0,0.5,0.1,0.8,0.2,1c0.1,0.2,0.4,0.3,0.7,0.3c0.4,0,0.6-0.1,0.7-0.3
		c0.1-0.2,0.2-0.5,0.2-1v-2.5c0-0.2,0-0.4,0-0.6c0-0.1,0-0.3-0.1-0.4c-0.1-0.1-0.1-0.2-0.3-0.3c-0.1-0.1-0.3-0.1-0.5-0.1
		c-0.2,0-0.4,0-0.5,0.1c-0.1,0.1-0.2,0.2-0.3,0.3s-0.1,0.3-0.1,0.4c0,0.1,0,0.3,0,0.6V113.7z"/>
	<path class="st5" d="M51.5,110.4c0-0.8,0.1-1.4,0.1-1.9s0.2-0.9,0.4-1.3c0.2-0.4,0.5-0.7,1-0.9c0.4-0.2,1-0.3,1.7-0.3
		c0.7,0,1.3,0.1,1.7,0.3c0.4,0.2,0.8,0.5,1,0.9s0.3,0.8,0.4,1.3c0.1,0.5,0.1,1.1,0.1,1.9v1.4c0,0.8,0,1.4-0.1,2
		c-0.1,0.5-0.2,1-0.4,1.4c-0.2,0.4-0.5,0.7-1,0.9s-1,0.3-1.8,0.3c-0.7,0-1.3-0.1-1.8-0.3c-0.4-0.2-0.8-0.5-1-0.9
		c-0.2-0.4-0.3-0.9-0.4-1.4c-0.1-0.5-0.1-1.2-0.1-2V110.4z M53.4,112.7c0,0.3,0,0.5,0,0.8c0,0.2,0.1,0.5,0.2,0.7s0.2,0.4,0.4,0.5
		c0.2,0.1,0.4,0.2,0.7,0.2c0.3,0,0.6-0.1,0.7-0.2c0.2-0.1,0.3-0.3,0.4-0.6c0.1-0.2,0.1-0.5,0.2-0.7c0-0.2,0-0.5,0-0.9V110
		c0-0.3,0-0.6,0-0.9c0-0.3-0.1-0.5-0.2-0.8s-0.2-0.5-0.4-0.6c-0.2-0.2-0.4-0.2-0.7-0.2c-0.3,0-0.5,0.1-0.7,0.2
		c-0.2,0.1-0.3,0.3-0.4,0.6c-0.1,0.2-0.1,0.5-0.2,0.8c0,0.3,0,0.6,0,1V112.7z"/>
	<path class="st5" d="M61.3,109.4L61.3,109.4c0.1-0.2,0.2-0.4,0.4-0.5c0.1-0.1,0.3-0.2,0.4-0.3c0.1-0.1,0.3-0.1,0.4-0.1
		c0.1,0,0.3,0,0.4,0c0.5,0,0.9,0.2,1.2,0.5c0.3,0.3,0.5,0.8,0.5,1.4v5.8h-1.7v-5c0-0.4,0-0.7-0.1-0.9c-0.1-0.2-0.3-0.3-0.6-0.3
		c-0.3,0-0.5,0.1-0.6,0.4c-0.1,0.2-0.2,0.6-0.2,1v4.8h-1.7v-7.5h1.7V109.4z"/>
	<path class="st5" d="M66.4,116.1v-9.9h1.7v9.9H66.4z"/>
	<path class="st5" d="M70.1,107.8v-1.6h1.7v1.6H70.1z M70.1,116.1v-7.5h1.7v7.5H70.1z"/>
	<path class="st5" d="M75.3,109.4L75.3,109.4c0.1-0.2,0.2-0.4,0.4-0.5s0.3-0.2,0.4-0.3c0.1-0.1,0.3-0.1,0.4-0.1c0.1,0,0.3,0,0.4,0
		c0.5,0,0.9,0.2,1.2,0.5s0.5,0.8,0.5,1.4v5.8h-1.7v-5c0-0.4,0-0.7-0.1-0.9c-0.1-0.2-0.3-0.3-0.6-0.3c-0.3,0-0.5,0.1-0.6,0.4
		c-0.1,0.2-0.2,0.6-0.2,1v4.8h-1.7v-7.5h1.7V109.4z"/>
	<path class="st5" d="M80.1,111.2c0-1.8,0.8-2.8,2.5-2.8c0.6,0,1.1,0.1,1.4,0.2c0.4,0.1,0.6,0.4,0.8,0.6c0.2,0.3,0.3,0.6,0.4,1
		c0.1,0.4,0.1,0.9,0.1,1.4v1h-3.4v1.1c0,0.5,0.1,0.8,0.2,0.9c0.2,0.2,0.4,0.2,0.7,0.2s0.5-0.1,0.6-0.3c0.1-0.2,0.2-0.6,0.2-1.1h1.7
		c0,0.9-0.2,1.6-0.6,2c-0.4,0.5-1,0.7-1.8,0.7c-1,0-1.7-0.2-2.1-0.7c-0.4-0.5-0.6-1.3-0.6-2.4V111.2z M83.6,111.4v-0.6
		c0-0.4-0.1-0.6-0.2-0.8s-0.4-0.2-0.7-0.2c-0.4,0-0.6,0.1-0.7,0.3c-0.1,0.2-0.1,0.6-0.1,1v0.3H83.6z"/>
	<path class="st5" d="M94.1,109.2c0-0.6-0.1-1-0.2-1.3c-0.1-0.3-0.4-0.5-0.9-0.5c-0.3,0-0.6,0.1-0.8,0.2c-0.2,0.1-0.3,0.4-0.3,0.7
		c0,0.3,0.1,0.6,0.2,0.8c0.2,0.2,0.4,0.4,0.8,0.6l0,0c0.2,0.1,0.4,0.3,0.6,0.4c0.2,0.1,0.4,0.3,0.6,0.4c0.2,0.1,0.4,0.3,0.6,0.4
		c0.2,0.2,0.4,0.3,0.5,0.4c0.3,0.3,0.5,0.6,0.6,0.9c0.1,0.3,0.2,0.7,0.2,1.1c0,0.9-0.3,1.6-0.8,2.1s-1.3,0.7-2.2,0.7
		c-0.5,0-1-0.1-1.4-0.2c-0.4-0.1-0.7-0.4-0.9-0.6c-0.2-0.3-0.4-0.6-0.5-0.9c-0.1-0.4-0.2-0.8-0.2-1.2v-0.7h1.9v0.6
		c0,0.5,0.1,1,0.3,1.2c0.2,0.3,0.5,0.4,0.9,0.4c0.8,0,1.2-0.4,1.2-1.2c0-0.3-0.1-0.5-0.2-0.7s-0.3-0.4-0.6-0.6
		c-0.2-0.2-0.5-0.4-1-0.7c-0.5-0.3-0.9-0.6-1.1-0.8c-0.3-0.2-0.5-0.5-0.8-0.8c-0.3-0.5-0.5-1-0.5-1.5c0-0.9,0.2-1.5,0.7-2
		S92,106,93,106c0.7,0,1.2,0.1,1.6,0.3c0.4,0.2,0.7,0.5,0.9,0.8c0.2,0.3,0.3,0.7,0.3,1c0,0.3,0.1,0.7,0.1,1v0.1H94.1z"/>
	<path class="st5" d="M97.4,111.2c0-1.8,0.8-2.8,2.5-2.8c0.6,0,1.1,0.1,1.4,0.2c0.4,0.1,0.6,0.4,0.8,0.6c0.2,0.3,0.3,0.6,0.4,1
		c0.1,0.4,0.1,0.9,0.1,1.4v1h-3.4v1.1c0,0.5,0.1,0.8,0.2,0.9c0.2,0.2,0.4,0.2,0.7,0.2s0.5-0.1,0.6-0.3c0.1-0.2,0.2-0.6,0.2-1.1h1.7
		c0,0.9-0.2,1.6-0.6,2c-0.4,0.5-1,0.7-1.8,0.7c-1,0-1.7-0.2-2.1-0.7c-0.4-0.5-0.6-1.3-0.6-2.4V111.2z M100.9,111.4v-0.6
		c0-0.4-0.1-0.6-0.2-0.8s-0.4-0.2-0.7-0.2c-0.4,0-0.6,0.1-0.7,0.3c-0.1,0.2-0.1,0.6-0.1,1v0.3H100.9z"/>
	<path class="st5" d="M105.8,110L105.8,110c0.1-0.3,0.2-0.5,0.3-0.6c0.1-0.2,0.2-0.3,0.4-0.4c0.2-0.2,0.4-0.3,0.5-0.3
		c0.2,0,0.3-0.1,0.5-0.1h0.1v2c-0.1,0-0.1,0-0.2,0c-0.1,0-0.1,0-0.2,0c-0.4,0-0.7,0.1-1,0.3c-0.2,0.2-0.4,0.5-0.4,1v4.3h-1.7v-7.5
		h1.7V110z"/>
	<path class="st5" d="M108.1,108.7h1.9l0.7,4.2c0.1,0.2,0.1,0.6,0.1,0.9c0,0.4,0.1,0.7,0.1,1.1l0,0.2h0l0-0.2c0-0.4,0.1-0.8,0.1-1.1
		c0-0.4,0.1-0.7,0.1-0.9l0.7-4.2h1.8l-1.7,7.5h-2.1L108.1,108.7z"/>
	<path class="st5" d="M114.9,107.8v-1.6h1.7v1.6H114.9z M114.9,116.1v-7.5h1.7v7.5H114.9z"/>
	<path class="st5" d="M121.2,111.3v-0.8c0-0.4-0.2-0.6-0.6-0.6c-0.3,0-0.5,0.1-0.5,0.4c-0.1,0.3-0.1,0.7-0.1,1.3v1.8
		c0,0.7,0,1.2,0.1,1.4c0.1,0.2,0.3,0.3,0.5,0.4c0.2,0,0.4-0.1,0.4-0.2c0.1-0.2,0.1-0.4,0.1-0.8l0-0.1v-0.7h1.7v0.7
		c0,0.8-0.2,1.4-0.6,1.8c-0.4,0.4-1,0.6-1.8,0.6c-0.8,0-1.4-0.2-1.7-0.7c-0.4-0.4-0.6-1.2-0.6-2.1v-2.4c0-0.5,0.1-0.9,0.2-1.3
		c0.1-0.3,0.3-0.6,0.5-0.8s0.5-0.3,0.7-0.4s0.6-0.1,0.9-0.1c0.4,0,0.8,0.1,1.1,0.2c0.3,0.1,0.6,0.3,0.7,0.5c0.2,0.2,0.3,0.4,0.4,0.7
		c0.1,0.3,0.1,0.5,0.1,0.8v0.6H121.2z"/>
	<path class="st5" d="M124.2,111.2c0-1.8,0.8-2.8,2.5-2.8c0.6,0,1.1,0.1,1.4,0.2c0.4,0.1,0.6,0.4,0.8,0.6c0.2,0.3,0.3,0.6,0.4,1
		c0.1,0.4,0.1,0.9,0.1,1.4v1h-3.4v1.1c0,0.5,0.1,0.8,0.2,0.9c0.2,0.2,0.4,0.2,0.7,0.2s0.5-0.1,0.6-0.3c0.1-0.2,0.2-0.6,0.2-1.1h1.7
		c0,0.9-0.2,1.6-0.6,2c-0.4,0.5-1,0.7-1.8,0.7c-1,0-1.7-0.2-2.1-0.7c-0.4-0.5-0.6-1.3-0.6-2.4V111.2z M127.6,111.4v-0.6
		c0-0.4-0.1-0.6-0.2-0.8s-0.4-0.2-0.7-0.2c-0.4,0-0.6,0.1-0.7,0.3c-0.1,0.2-0.1,0.6-0.1,1v0.3H127.6z"/>
</g>
</svg>
