<?xml version="1.0" encoding="utf-8"?>
<!-- Generator: Adobe Illustrator 20.0.0, SVG Export Plug-In . SVG Version: 6.00 Build 0)  -->
<svg version="1.1" id="Capa_1" xmlns="http://www.w3.org/2000/svg" xmlns:xlink="http://www.w3.org/1999/xlink" x="0px" y="0px"
	 viewBox="0 0 459 510" style="enable-background:new 0 0 459 510;" xml:space="preserve">
<style type="text/css">
	.st0{fill:#24A59B;}
</style>
<g>
	<g id="receipt">
		<path class="st0" d="M382.5,382.5h-306v-51h306V382.5z M382.5,280.5h-306v-51h306V280.5z M382.5,178.5h-306v-51h306V178.5z M0,510
			l38.2-38.2L76.5,510l38.2-38.2L153,510l38.2-38.2l38.2,38.2l38.2-38.2L306,510l38.2-38.2l38.2,38.2l38.2-38.2L459,510V0
			l-38.2,38.2L382.5,0l-38.2,38.2L306,0l-38.2,38.2L229.5,0l-38.2,38.2L153,0l-38.2,38.2L76.5,0L38.2,38.2L0,0V510z"/>
	</g>
</g>
</svg>
