<?xml version="1.0" encoding="utf-8"?>
<!-- Generator: Adobe Illustrator 22.0.1, SVG Export Plug-In . SVG Version: 6.00 Build 0)  -->
<svg version="1.1" id="Layer_1" xmlns="http://www.w3.org/2000/svg" xmlns:xlink="http://www.w3.org/1999/xlink" x="0px" y="0px"
	 viewBox="0 0 48 48" style="enable-background:new 0 0 48 48;" xml:space="preserve">
<style type="text/css">
	.st0{fill:#FFFFFF;}
</style>
<g>
	<path class="st0" d="M24,0c-0.4,0-0.8,0.4-0.8,0.8v10.6c0,0.4,0.4,0.8,0.8,0.8s0.8-0.4,0.8-0.8V1.6C36.8,2,46.4,11.9,46.4,24
		c0,12.4-10,22.4-22.4,22.4S1.6,36.4,1.6,24c0-6,2.3-11.6,6.5-15.8c0.3-0.3,0.3-0.8,0-1.1C7.8,6.7,7.3,6.7,7,7.1
		C2.5,11.6,0,17.6,0,24c0,13.2,10.8,24,24,24s24-10.8,24-24S37.2,0,24,0L24,0z"/>
	<path class="st0" d="M22.8,26.8c0.5,0.7,1.2,1.1,2.1,1.2c0.1,0,0.1,0,0.2,0c0.8,0,1.5-0.3,2-0.8c0.6-0.6,0.9-1.4,0.8-2.2
		c-0.1-0.8-0.5-1.6-1.2-2.1l-10.4-7.5c-0.3-0.2-0.8-0.2-1,0.1c-0.3,0.3-0.3,0.7-0.1,1L22.8,26.8z M25.9,24.1
		c0.3,0.2,0.5,0.6,0.5,0.9c0,0.4-0.1,0.7-0.4,1s-0.6,0.4-1,0.4s-0.7-0.2-0.9-0.5l-4.6-6.3L25.9,24.1z"/>
</g>
</svg>
