<?xml version="1.0" encoding="utf-8"?>
<!-- Generator: Adobe Illustrator 20.0.0, SVG Export Plug-In . SVG Version: 6.00 Build 0)  -->
<svg version="1.1" id="Layer_1" xmlns="http://www.w3.org/2000/svg" xmlns:xlink="http://www.w3.org/1999/xlink" x="0px" y="0px"
	 viewBox="0 0 512 512" style="enable-background:new 0 0 512 512;" xml:space="preserve">
<style type="text/css">
	.st0{fill:#EB008B;}
</style>
<g>
	<g>
		<g>
			<path class="st0" d="M503.5,136.5H191.3l308.2-51.7c4.6-0.8,7.8-5.1,7-9.8L495.8,7.3c-0.4-2.2-1.6-4.2-3.4-5.6
				c-1.8-1.3-4.2-1.9-6.4-1.5L129.3,59.2c-4.7,0.8-7.8,5.2-7,9.8c0.8,4.7,5.1,7.8,9.8,7l35.6-5.9l35.5,47l-25.1,4.2
				c-4.7,0.8-7.8,5.2-7,9.8c0.5,2.8,2.3,4.9,4.6,6.1c-2.9,1.3-5,4.3-5,7.7c0,4.7,3.8,8.5,8.5,8.5h34.1l-38.4,51.2h-29.9
				c-4.7,0-8.5,3.8-8.5,8.5s3.8,8.5,8.5,8.5h349.9v247.5c0,14.1-11.5,25.6-25.6,25.6H42.7c-14.1,0-25.6-11.5-25.6-25.6v-384h72.5
				l44.8,59.7l-44.8,59.7H42.7c-4.7,0-8.5,3.8-8.5,8.5s3.8,8.5,8.5,8.5h51.2c2.7,0,5.2-1.3,6.8-3.4l51.2-68.3c2.3-3,2.3-7.2,0-10.2
				l-51.2-68.3c-1.6-2.2-4.1-3.4-6.8-3.4H8.5C3.8,68.2,0,72,0,76.7v392.5c0,23.5,19.1,42.7,42.7,42.7h426.7
				c23.5,0,42.7-19.1,42.7-42.7V145C512,140.3,508.2,136.5,503.5,136.5z M480.3,18.4l8.1,50.9l-33.3,5.6l-34.8-46.6L480.3,18.4z
				 M401.3,31.5l34.9,46.6l-60.8,10.2l-34.8-46.7L401.3,31.5z M321.6,44.7l34.8,46.8l-55,9.2l-35-46.9L321.6,44.7z M186.7,67
				L247.5,57l35,46.9L222.1,114L186.7,67z M196.3,204.7l38.4-51.2h55.5l-38.4,51.2H196.3z M273.1,204.7l38.4-51.2h55.5l-38.4,51.2
				H273.1z M349.9,204.7l38.4-51.2h55.5l-38.4,51.2H349.9z M494.9,204.7h-68.3l38.4-51.2h29.9V204.7z"/>
			<path class="st0" d="M315.7,247.4c-4.7,0-8.5,3.8-8.5,8.5v128H59.7c-4.7,0-8.5,3.8-8.5,8.5s3.8,8.5,8.5,8.5h392.5
				c4.7,0,8.5-3.8,8.5-8.5s-3.8-8.5-8.5-8.5h-128v-128C324.3,251.2,320.5,247.4,315.7,247.4z"/>
		</g>
	</g>
</g>
</svg>
