<?xml version="1.0" encoding="utf-8"?>
<!-- Generator: Adobe Illustrator 20.0.0, SVG Export Plug-In . SVG Version: 6.00 Build 0)  -->
<svg version="1.1" id="Layer_1" xmlns="http://www.w3.org/2000/svg" xmlns:xlink="http://www.w3.org/1999/xlink" x="0px" y="0px"
	 viewBox="0 0 123.3 123.3" style="enable-background:new 0 0 123.3 123.3;" xml:space="preserve">
<style type="text/css">
	.st0{fill:#E6E7E8;}
	.st1{fill:#EB008B;}
	.st2{fill:#00A69C;}
</style>
<circle class="st0" cx="61.7" cy="61.7" r="61.7"/>
<path class="st1" d="M104.3,46.8c0-15.9-13-28.9-28.9-28.9c-4.9,0-9.7,1.2-14,3.6c-3.1,1.7-4.2,5.5-2.5,8.6c1.7,3.1,5.5,4.2,8.6,2.5
	c2.4-1.3,5.1-2,7.8-2c9,0,16.2,7.3,16.2,16.2c0,2.6-0.6,5.1-1.8,7.4L60.2,95.1c-2.1,2.8-1.4,6.8,1.4,8.8c1.1,0.8,2.4,1.2,3.7,1.2
	c2,0,3.9-0.9,5.1-2.6l29.6-40.8c0.2-0.3,0.5-0.6,0.7-1C103,56.5,104.3,51.7,104.3,46.8z"/>
<path class="st2" d="M65.8,51.9l-22.5-31c-2-2.8-6-3.7-8.8-1.7c-3,2-3.7,6.1-1.6,9l24.4,33.6L32.9,95.3c-2.1,2.8-1.4,6.8,1.4,8.8
	c1.1,0.8,2.4,1.2,3.7,1.2c2,0,3.9-0.9,5.1-2.6l22.7-31.2l4.3-6c1.7-2.3,1.7-5.4,0-7.6L65.8,51.9z"/>
</svg>
