<?xml version="1.0" encoding="utf-8"?>
<!-- Generator: Adobe Illustrator 20.0.0, SVG Export Plug-In . SVG Version: 6.00 Build 0)  -->
<svg version="1.1" id="Layer_1" xmlns="http://www.w3.org/2000/svg" xmlns:xlink="http://www.w3.org/1999/xlink" x="0px" y="0px"
	 viewBox="0 0 148.2 130.9" style="enable-background:new 0 0 148.2 130.9;" xml:space="preserve">
<style type="text/css">
	.st0{fill:#EB008B;}
	.st1{fill:none;stroke:#EB008B;stroke-width:14;stroke-miterlimit:10;}
	.st2{fill:none;stroke:#EB008B;stroke-width:14;stroke-linecap:round;stroke-miterlimit:10;}
	.st3{fill:none;stroke:#EC1C24;stroke-width:14;stroke-linecap:round;stroke-miterlimit:10;}
	.st4{fill:#00A69C;}
</style>
<path class="st0" d="M49.9,81.1c1.3,0,2.6,0.3,3.8,1c1.2,0.7,2.2,1.6,2.9,2.9c0.7,1.3,1.1,2.6,1.1,3.9c0,1.9-0.7,3.8-2.2,5.5
	c0,0,0,0,0,0c-1.7,1.5-3.6,2.2-5.6,2.2c-1.9,0-3.8-0.7-5.6-2.2c-1.5-1.8-2.2-3.6-2.2-5.6c0-1.4,0.3-2.7,1-3.9
	c0.7-1.3,1.7-2.2,2.9-2.9C47.4,81.4,48.6,81.1,49.9,81.1z"/>
<path class="st0" d="M62.9,62.9c1.3,0,2.6,0.3,3.8,1c1.2,0.7,2.2,1.6,2.9,2.9c0.7,1.3,1.1,2.6,1.1,3.9c0,1.9-0.7,3.8-2.2,5.5
	c0,0,0,0,0,0c-1.7,1.5-3.6,2.2-5.6,2.2c-1.9,0-3.8-0.7-5.6-2.2c-1.5-1.8-2.2-3.6-2.2-5.6c0-1.4,0.3-2.7,1-3.9
	c0.7-1.3,1.7-2.2,2.9-2.9C60.4,63.2,61.6,62.9,62.9,62.9z"/>
<circle class="st1" cx="32.8" cy="32" r="25"/>
<line class="st2" x1="54.8" y1="44" x2="21.8" y2="89.4"/>
<line class="st2" x1="54" y1="18.9" x2="76.9" y2="50.7"/>
<path class="st0" d="M148.2,32c0-17.6-14.3-32-32-32c-5.4,0-10.7,1.4-15.4,4c-3.4,1.9-4.6,6.1-2.7,9.5c1.9,3.4,6.1,4.6,9.5,2.7
	c2.6-1.5,5.6-2.2,8.7-2.2c9.9,0,18,8.1,18,18c0,2.9-0.7,5.7-2,8.2L99.4,85.3c-2.3,3.1-1.6,7.5,1.6,9.8c1.2,0.9,2.7,1.3,4.1,1.3
	c2.2,0,4.3-1,5.7-2.9l32.8-45.2c0.3-0.3,0.5-0.7,0.7-1.1C146.8,42.7,148.2,37.3,148.2,32z"/>
<path class="st3" d="M58.1,24.8"/>
<path class="st4" d="M105.7,37.6L80.8,3.3c-2.3-3.1-6.6-4.1-9.8-1.9c-3.3,2.2-4,6.7-1.7,9.9l27,37.2L69.3,85.6
	c-2.3,3.1-1.6,7.5,1.6,9.8c1.2,0.9,2.7,1.3,4.1,1.3c2.2,0,4.3-1,5.7-2.9l25.1-34.5l4.8-6.6c1.8-2.5,1.8-5.9,0-8.4L105.7,37.6z"/>
<path d="M22.9,119.8c-0.4,0-0.8-0.1-1.1-0.3c0,0.3,0,0.6-0.1,0.8c0,0.2-0.1,0.4-0.1,0.5c0,0.1-0.1,0.2-0.1,0.3
	c0,0.1-0.1,0.1-0.1,0.1c-0.3,0.4-0.6,0.8-1,1.1c-0.4,0.3-0.8,0.6-1.3,0.9c-0.5,0.3-0.9,0.5-1.4,0.6c-0.5,0.2-1,0.2-1.5,0.2
	c-0.7,0-1.3-0.1-1.8-0.3c-0.5-0.2-0.9-0.4-1.2-0.8c-0.3-0.3-0.5-0.7-0.7-1.1c-0.1-0.4-0.2-0.9-0.2-1.4c0-0.5,0.1-1,0.2-1.5
	c0.1-0.5,0.3-0.9,0.4-1.3c0.2-0.4,0.3-0.7,0.4-1c0.1-0.3,0.2-0.5,0.3-0.5c0.1-0.1,0.2-0.2,0.2-0.1c0.1,0.1,0.1,0.1,0.1,0.3
	c-0.1,0.2-0.1,0.6-0.3,1c-0.1,0.4-0.2,0.9-0.2,1.5c0,0.4,0,0.7,0.1,1.1c0.1,0.3,0.2,0.6,0.5,0.9c0.2,0.3,0.5,0.4,0.8,0.6
	c0.3,0.1,0.8,0.2,1.3,0.2c0.5,0,1-0.1,1.5-0.2c0.5-0.1,0.9-0.3,1.2-0.4c0.4-0.2,0.6-0.3,0.8-0.5c0.2-0.2,0.3-0.3,0.3-0.4
	c0-0.1,0-0.3-0.1-0.7c0-0.4-0.1-0.9-0.1-1.6c-0.1-0.6-0.1-1.3-0.2-2.1c-0.1-0.8-0.1-1.6-0.2-2.4c-0.1-0.8-0.2-1.6-0.2-2.4
	c-0.1-0.8-0.1-1.5-0.2-2.2l1.6-1.5c0.1-0.1,0.2-0.2,0.2-0.2c0.1,0,0.1,0,0.1,0.2c0,0.1,0,0.3,0,0.7c0,0.4,0.1,0.8,0.1,1.4
	c0,0.6,0.1,1.2,0.1,1.9c0,0.7,0.1,1.4,0.1,2.1c0,0.7,0.1,1.4,0.1,2.1c0,0.7,0.1,1.3,0.1,1.9h1.5v2.7H22.9z"/>
<path d="M23.3,119.8c-0.1,0-0.2,0-0.3,0c-0.1,0-0.2-0.1-0.2-0.1v-2.4c0-0.1,0.1-0.1,0.2-0.1c0.1,0,0.2,0,0.3,0h2.1v2.7H23.3z"/>
<path d="M25.5,119.8c-0.1,0-0.2,0-0.3,0c-0.1,0-0.2-0.1-0.2-0.1v-2.4c0-0.1,0.1-0.1,0.2-0.1c0.1,0,0.2,0,0.3,0h2.1v2.7H25.5z"/>
<path d="M35.3,119.8c-0.2,0-0.4,0-0.7-0.1c-0.3-0.1-0.4-0.2-0.5-0.4l0.1-0.5c-0.1,0.2-0.2,0.4-0.3,0.5c-0.1,0.1-0.1,0.2-0.2,0.2
	c-0.2,0.1-0.7,0.2-1.4,0.2c-0.7,0-1.5,0-2.5,0h-2.3c-0.1,0-0.2,0-0.3,0c-0.1,0-0.2-0.1-0.2-0.1v-2.4c0-0.1,0.1-0.1,0.2-0.1
	c0.1,0,0.2,0,0.3,0h4.6c-0.2-0.1-0.5-0.2-0.9-0.4c-0.3-0.1-0.7-0.3-1-0.4c-0.3-0.1-0.6-0.3-0.9-0.4c-0.3-0.1-0.5-0.3-0.6-0.4
	c-0.2-0.2-0.3-0.3-0.3-0.5c-0.1-0.2-0.1-0.4-0.1-0.5c0-0.2,0-0.3,0.1-0.5c0.1-0.2,0.1-0.3,0.2-0.5c0.2-0.3,0.4-0.7,0.6-1
	c0.2-0.4,0.5-0.7,0.8-1c0.3-0.3,0.5-0.5,0.8-0.7c0.3-0.2,0.5-0.3,0.7-0.3c0.4,0,0.7,0.2,1.1,0.5c0.3,0.4,0.6,0.8,0.9,1.3
	c0.3,0.5,0.5,1.1,0.6,1.8c0.1,0.6,0.2,1.2,0.2,1.8c0,0.5,0,0.9-0.1,1.2h1.2v2.7H35.3z M31.6,107.5l-1.1,1.6l-2.2-1.4l1.1-1.6
	L31.6,107.5z M33.3,115.5c0-0.3-0.1-0.6-0.2-0.9c-0.1-0.4-0.3-0.7-0.4-1c-0.2-0.3-0.4-0.6-0.6-0.8c-0.2-0.2-0.4-0.3-0.7-0.3
	c-0.3,0-0.5,0.1-0.8,0.3c-0.2,0.2-0.5,0.6-0.8,1c0.4,0.2,0.9,0.5,1.4,0.8C31.8,114.8,32.5,115.1,33.3,115.5z M35,107.4l-1.1,1.6
	l-2.2-1.4l1.1-1.6L35,107.4z"/>
<path d="M41.9,119.8c-0.2,0-0.5,0-0.7-0.1c-0.2-0.1-0.4-0.2-0.5-0.4c0,0.1-0.1,0.2-0.2,0.2c-0.1,0.1-0.3,0.1-0.5,0.1
	c-0.2,0-0.5,0.1-0.7,0.1c-0.3,0-0.5,0-0.8,0.1c-0.3,0-0.5,0-0.7,0h-2.2c-0.1,0-0.2,0-0.3,0c-0.1,0-0.2-0.1-0.2-0.1v-2.4
	c0-0.1,0.1-0.1,0.2-0.1c0.1,0,0.2,0,0.3,0h2.2c0.2,0,0.5,0,0.7,0c0.3,0,0.5-0.1,0.7-0.2c0-0.2-0.1-0.4-0.2-0.6
	c-0.1-0.2-0.2-0.4-0.4-0.6c-0.1-0.2-0.3-0.4-0.4-0.6c-0.2-0.2-0.3-0.4-0.4-0.5l1.4-2.2c0-0.1,0.1-0.1,0.2,0c0.1,0.1,0.2,0.3,0.4,0.5
	c0.2,0.3,0.4,0.6,0.5,1c0.2,0.4,0.4,0.9,0.5,1.4c0.2,0.5,0.3,1.1,0.3,1.8h1.2v2.7H41.9z M38.6,109.4l-1.1,1.6l-2.2-1.4l1.1-1.6
	L38.6,109.4z M41.9,109.3l-1.1,1.6l-2.2-1.4l1.1-1.6L41.9,109.3z"/>
<path d="M58,119.8c-0.2,0-0.4,0-0.6-0.1c-0.2-0.1-0.4-0.2-0.5-0.4c-0.2,0.4-0.3,0.5-0.5,0.5c-0.4,0-0.8,0-1.2-0.1
	c-0.4,0-0.9-0.1-1.3-0.2c-0.4-0.1-0.9-0.2-1.3-0.3c-0.4-0.1-0.8-0.3-1.1-0.4c-0.4,0.4-0.9,0.7-1.4,0.8c-0.5,0.1-1,0.1-1.6,0.2
	c-0.4,0-0.7,0-0.9,0c-0.3,0-0.5,0-0.7-0.1c-0.2,0-0.4-0.1-0.6-0.2c-0.2-0.1-0.4-0.2-0.7-0.3c-0.4,0.3-0.9,0.5-1.5,0.5
	c-0.6,0-1.2,0.1-1.8,0.1c-0.1,0-0.2,0-0.3,0c-0.1,0-0.2-0.1-0.2-0.1v-2.4c0-0.1,0.1-0.1,0.2-0.1c0.1,0,0.2,0,0.3,0
	c0.2,0,0.5,0,0.7,0s0.5,0,0.8,0c0.3,0,0.5,0,0.8-0.1c0.3,0,0.5-0.1,0.7-0.2c0.2-0.3,0.2-0.6,0.2-0.9c0-0.2,0-0.4-0.1-0.6l1.6-1.7
	c0.1-0.1,0.1-0.1,0.2,0c0,0.1,0.1,0.3,0.1,0.5c0,0.2,0,0.4,0,0.4c0,0.4-0.1,0.8-0.2,1.2c-0.1,0.4-0.2,0.8-0.4,1.1
	c0.2,0.1,0.4,0.2,0.6,0.2c0.2,0,0.5,0.1,0.9,0.1c0.4,0,0.8,0,1.2-0.1c0.4,0,0.9-0.1,1.4-0.2c0.1-0.1,0.2-0.3,0.2-0.4
	c0-0.1,0-0.3,0-0.5c0-0.2,0-0.5-0.1-0.6l1.6-1.7c0.1-0.1,0.1-0.1,0.2,0c0,0.1,0.1,0.3,0.1,0.5c0,0.2,0,0.4,0,0.4
	c0,0.4,0,0.7-0.1,1.1c-0.1,0.4-0.2,0.7-0.3,1c0.2,0.2,0.6,0.4,1.1,0.5c0.5,0.1,1.1,0.2,1.6,0.2c0.1,0,0.2,0,0.3,0c0.1,0,0.2,0,0.3,0
	c0-0.4-0.1-0.7-0.3-1.2c-0.2-0.4-0.4-0.8-0.6-1.2c0.3-0.3,0.5-0.6,0.7-0.8c0.2-0.2,0.3-0.4,0.4-0.5c0.1-0.1,0.2-0.2,0.3-0.3
	c0.1-0.1,0.1-0.1,0.2-0.2c0-0.1,0.1-0.1,0.2,0c0,0.1,0.1,0.2,0.2,0.4c0.1,0.2,0.1,0.4,0.2,0.7c0.1,0.3,0.1,0.6,0.2,1
	c0.1,0.4,0.1,0.7,0.1,1.1c0,0.1,0,0.2,0,0.3c0,0.1,0,0.2,0,0.3h1.1v2.7H58z"/>
<path d="M57.9,117.3c0-0.1,0.1-0.1,0.2-0.1c0.1,0,0.2,0,0.3,0h1.5c0.5,0,0.8-0.1,0.9-0.3c0.2-0.2,0.3-0.5,0.5-0.8
	c0.1-0.3,0.3-0.7,0.5-1.1c0.2-0.4,0.4-0.7,0.7-1.1c0.2-0.3,0.5-0.6,0.8-0.8c0.3-0.2,0.6-0.3,1-0.3c0.4,0,0.7,0.2,1,0.5
	c0.3,0.4,0.5,0.8,0.7,1.3c0.2,0.5,0.3,1,0.4,1.5c0.1,0.5,0.1,0.9,0.1,1.2c0,0.3,0,0.6-0.1,0.8c-0.1,0.3-0.1,0.5-0.2,0.7
	c-0.1,0.2-0.2,0.4-0.2,0.5c-0.1,0.1-0.1,0.2-0.2,0.2c-0.1,0.1-0.3,0.2-0.6,0.2s-0.6,0.1-1,0.1c-0.7,0-1.4-0.1-1.9-0.2
	c-0.6-0.1-1-0.4-1.5-0.9c-0.2,0.3-0.5,0.6-0.7,0.8c-0.3,0.2-0.6,0.3-0.9,0.3h-1c-0.1,0-0.2,0-0.3,0c-0.1,0-0.2-0.1-0.2-0.1V117.3z
	 M63.7,115.3c-0.3,0-0.6,0.1-0.9,0.4c-0.2,0.2-0.5,0.5-0.7,0.9c0.2,0.2,0.4,0.3,0.6,0.4c0.3,0.1,0.5,0.2,0.8,0.2
	c0.3,0.1,0.6,0.1,0.9,0.1c0.3,0,0.5,0,0.8,0c0-0.3-0.1-0.5-0.2-0.8c-0.1-0.2-0.2-0.5-0.4-0.7c-0.2-0.2-0.3-0.4-0.5-0.5
	C64,115.3,63.8,115.3,63.7,115.3z"/>
<path d="M76.8,119.8c-0.3,0-0.6,0-0.8-0.1c-0.2-0.1-0.4-0.2-0.5-0.3c0,0.1-0.1,0.2-0.1,0.2c0,0.1-0.2,0.1-0.3,0.2
	c-0.2,0-0.4,0.1-0.7,0.1c-0.3,0-0.7,0-1.2,0c-1.2,0-2.1,0-2.7,0.1c-0.6,0-0.9,0.2-1,0.4c0.3,1,0.6,1.9,0.8,2.8
	c0.2,0.8,0.3,1.6,0.3,2.3c0,0.5-0.1,0.9-0.2,1.4c-0.1,0.4-0.3,0.9-0.6,1.3c-0.1-0.7-0.2-1.5-0.4-2.4c-0.2-0.9-0.4-1.7-0.6-2.5
	c-0.2-0.8-0.4-1.5-0.5-2c-0.1-0.6-0.2-0.9-0.2-1c0-0.1,0.1-0.5,0.2-0.9c0.2-0.5,0.4-1,0.6-1.5c0.1-0.1,0.4-0.2,0.8-0.2
	c0.4,0,0.8-0.1,1.2-0.1c0.4,0,0.8-0.1,1.2-0.1c0.4,0,0.6-0.1,0.6-0.2c0-0.1-0.1-0.3-0.3-0.5c-0.1-0.2-0.3-0.4-0.5-0.6
	c-0.2-0.2-0.3-0.4-0.5-0.5c-0.2-0.1-0.3-0.2-0.4-0.2c-0.2,0-0.4,0-0.6,0.1c-0.2,0.1-0.4,0.2-0.6,0.3c-0.2,0.1-0.4,0.2-0.5,0.4
	c-0.2,0.1-0.3,0.2-0.4,0.3c-0.1,0-0.1,0-0.2,0c-0.1,0-0.1-0.1,0-0.3c0.1-0.2,0.2-0.4,0.4-0.8c0.2-0.4,0.4-0.7,0.7-1.1
	c0.3-0.4,0.6-0.7,0.9-1c0.3-0.3,0.7-0.4,1-0.4c0.3,0,0.5,0.1,0.8,0.3c0.3,0.2,0.5,0.5,0.8,0.8c0.3,0.3,0.5,0.6,0.7,1
	c0.2,0.4,0.4,0.7,0.7,1c0.2,0.3,0.4,0.6,0.6,0.8c0.2,0.2,0.4,0.3,0.5,0.3h1.2v2.7H76.8z"/>
<path d="M77.2,119.8c-0.1,0-0.2,0-0.3,0c-0.1,0-0.2-0.1-0.2-0.1v-2.4c0-0.1,0.1-0.1,0.2-0.1c0.1,0,0.2,0,0.3,0h2.1v2.7H77.2z"/>
<path d="M79.3,119.8c-0.1,0-0.2,0-0.3,0c-0.1,0-0.2-0.1-0.2-0.1v-2.4c0-0.1,0.1-0.1,0.2-0.1c0.1,0,0.2,0,0.3,0h2.1v2.7H79.3z"/>
<path d="M86.4,119.8c-0.2,0-0.5,0-0.7-0.1c-0.2-0.1-0.4-0.2-0.5-0.4l0-0.1c-0.1,0.1-0.1,0.2-0.1,0.3c0,0.1-0.1,0.1-0.1,0.1
	c-0.2,0.1-0.5,0.1-1.1,0.2c-0.5,0-1.1,0.1-1.7,0.1h-0.8c-0.1,0-0.2,0-0.3,0c-0.1,0-0.2-0.1-0.2-0.1v-2.4c0-0.1,0.1-0.1,0.2-0.1
	c0.1,0,0.2,0,0.3,0h1.6c0.2,0,0.4,0,0.5,0c0.2,0,0.3,0,0.4-0.1l-1-8.6l1.7-1.7c0.1-0.1,0.2-0.2,0.3-0.2c0.1,0,0.1,0.1,0.1,0.2
	c0.1,1,0.1,2,0.2,3c0.1,1,0.1,1.9,0.2,2.8c0.1,0.9,0.1,1.7,0.1,2.5c0,0.8,0.1,1.4,0.1,2h1.2v2.7H86.4z"/>
<path d="M93.1,119.8c-0.2,0-0.5,0-0.7-0.1c-0.2-0.1-0.4-0.2-0.5-0.4c0,0.1-0.1,0.2-0.2,0.2c-0.1,0.1-0.3,0.1-0.5,0.1
	c-0.2,0-0.5,0.1-0.7,0.1c-0.3,0-0.5,0-0.8,0.1c-0.3,0-0.5,0-0.7,0h-2.2c-0.1,0-0.2,0-0.3,0c-0.1,0-0.2-0.1-0.2-0.1v-2.4
	c0-0.1,0.1-0.1,0.2-0.1c0.1,0,0.2,0,0.3,0H89c0.2,0,0.5,0,0.7,0c0.3,0,0.5-0.1,0.7-0.2c0-0.2-0.1-0.4-0.2-0.6
	c-0.1-0.2-0.2-0.4-0.4-0.6c-0.1-0.2-0.3-0.4-0.4-0.6c-0.2-0.2-0.3-0.4-0.4-0.5l1.4-2.2c0-0.1,0.1-0.1,0.2,0c0.1,0.1,0.2,0.3,0.4,0.5
	c0.2,0.3,0.4,0.6,0.5,1c0.2,0.4,0.4,0.9,0.5,1.4c0.2,0.5,0.3,1.1,0.3,1.8h1.2v2.7H93.1z M92.8,123l-1,1.6l-2-1.1l-0.8,1.2l-2.1-1.2
	l1-1.6l1.8,1.1l0.8-1.2L92.8,123z"/>
<path d="M93,117.3c0-0.1,0.1-0.1,0.2-0.1c0.1,0,0.2,0,0.3,0h4.6c-0.2-0.1-0.5-0.2-0.9-0.4c-0.3-0.1-0.7-0.3-1-0.4
	c-0.3-0.1-0.6-0.3-0.9-0.4c-0.3-0.1-0.5-0.3-0.6-0.4c-0.2-0.2-0.3-0.3-0.3-0.5c-0.1-0.2-0.1-0.4-0.1-0.5c0-0.2,0-0.3,0.1-0.5
	c0.1-0.2,0.1-0.3,0.2-0.5c0.2-0.3,0.4-0.7,0.6-1c0.2-0.4,0.5-0.7,0.8-1c0.3-0.3,0.5-0.5,0.8-0.7c0.3-0.2,0.5-0.3,0.7-0.3
	c0.4,0,0.7,0.2,1.1,0.5c0.3,0.4,0.6,0.8,0.9,1.3c0.3,0.5,0.5,1.1,0.6,1.8c0.1,0.6,0.2,1.2,0.2,1.8c0,0.7,0,1.2-0.1,1.7
	c-0.1,0.5-0.1,0.8-0.2,1.1c-0.1,0.3-0.2,0.5-0.3,0.7c-0.1,0.2-0.2,0.2-0.2,0.2c-0.2,0.1-0.7,0.2-1.4,0.2c-0.7,0-1.5,0-2.5,0h-2.3
	c-0.1,0-0.2,0-0.3,0c-0.1,0-0.2-0.1-0.2-0.1V117.3z M99.2,115.5c0-0.3-0.1-0.6-0.2-0.9c-0.1-0.4-0.3-0.7-0.4-1
	c-0.2-0.3-0.4-0.6-0.6-0.8c-0.2-0.2-0.4-0.3-0.7-0.3c-0.3,0-0.5,0.1-0.8,0.3c-0.2,0.2-0.5,0.6-0.8,1c0.4,0.2,0.9,0.5,1.4,0.8
	C97.6,114.8,98.3,115.1,99.2,115.5z M99,107.1l-0.9,2l-2.2-0.9l0.8-1.9L99,107.1z"/>
<path d="M111.3,119.8c-1.1,0-2-0.2-2.7-0.6c-0.7-0.4-1.4-1-2-1.9c-0.4,0.2-0.8,0.5-1.2,0.7c-0.4,0.3-0.8,0.5-1.1,0.9
	c-0.4,0.3-0.7,0.7-0.9,1.1c-0.3,0.4-0.4,0.8-0.5,1.3c-0.2,1.1,0,1.9,0.6,2.6c0.6,0.7,1.5,1.1,2.8,1.3c0.4,0,0.8,0.1,1.2,0.1
	c0.4,0,0.9,0,1.3,0c0.4,0,0.9,0,1.3,0c0.4,0,0.8,0,1.2-0.1c0.4,0,0.5,0,0.6,0.1c0,0.1,0,0.2-0.2,0.3c-0.5,0.5-1.1,0.9-1.7,1.2
	c-0.6,0.3-1.1,0.5-1.7,0.7c-0.5,0.2-1,0.3-1.4,0.3c-0.4,0.1-0.7,0.1-0.8,0.1c-1,0-1.9-0.2-2.6-0.6c-0.7-0.4-1.2-1-1.6-1.7
	c-0.4-0.7-0.6-1.5-0.7-2.3c-0.1-0.8,0-1.7,0.3-2.5c0.3-0.9,0.8-1.8,1.5-2.6c0.7-0.8,1.5-1.6,2.4-2.4c-0.2-0.2-0.4-0.4-0.6-0.5
	c-0.2-0.1-0.5-0.2-0.8-0.2c-0.1,0-0.2,0-0.3,0c-0.1,0-0.2,0-0.3,0c-0.1,0-0.1,0-0.2,0c-0.1,0-0.1-0.1,0-0.2c0-0.1,0.1-0.1,0.1-0.2
	c0.1-0.1,0.1-0.2,0.2-0.3c0.1-0.2,0.2-0.4,0.4-0.6c0.2-0.3,0.3-0.6,0.6-1c0.2-0.1,0.5-0.2,0.9-0.3c0.4-0.1,0.7-0.1,1-0.1
	c0.3,0,0.6,0,1,0.1c0.3,0.1,0.7,0.2,0.9,0.3c0.3,0.2,0.5,0.4,0.7,0.6c0.2,0.3,0.3,0.6,0.3,0.9c0,0.2-0.1,0.4-0.2,0.6
	c-0.1,0.2-0.2,0.3-0.3,0.5c-0.1,0.1-0.2,0.2-0.4,0.3c-0.1,0.1-0.2,0.2-0.3,0.3c0.1,0.1,0.2,0.2,0.3,0.3c0.1,0.1,0.3,0.2,0.5,0.3
	s0.5,0.2,0.9,0.3c0.4,0.1,0.9,0.1,1.5,0.1h0.2v2.7H111.3z"/>
<path d="M111.6,119.8c-0.1,0-0.2,0-0.3,0c-0.1,0-0.2-0.1-0.2-0.1v-2.4c0-0.1,0.1-0.1,0.2-0.1c0.1,0,0.2,0,0.3,0h2.1v2.7H111.6z"/>
<path d="M113.8,119.8c-0.1,0-0.2,0-0.3,0c-0.1,0-0.2-0.1-0.2-0.1v-2.4c0-0.1,0.1-0.1,0.2-0.1c0.1,0,0.2,0,0.3,0h2.1v2.7H113.8z"/>
<path d="M115.4,117.3c0-0.1,0.1-0.1,0.2-0.1c0.1,0,0.2,0,0.3,0h5c0.3,0,0.6,0,0.9,0c0.3,0,0.6,0,1,0c-0.3-0.4-0.7-0.8-1-1.1
	c-0.3-0.3-0.7-0.6-1-0.9s-0.7-0.5-1.1-0.6c-0.4-0.1-0.8-0.2-1.2-0.2c-0.5,0-0.9,0.1-1.2,0.2c-0.3,0.1-0.6,0.2-0.7,0.3
	c-0.1,0-0.2,0-0.3-0.1c-0.1-0.1-0.1-0.2,0-0.3c0.1-0.1,0.2-0.3,0.4-0.5c0.2-0.2,0.4-0.4,0.7-0.7c0.3-0.2,0.6-0.4,0.9-0.6
	c0.4-0.2,0.8-0.2,1.2-0.2c0.6,0,1.1,0.1,1.6,0.3c0.5,0.2,1,0.5,1.4,0.9c0.4,0.4,0.9,0.7,1.2,1.1c0.4,0.4,0.8,0.8,1.1,1.1
	c0.3,0.4,0.7,0.6,1,0.9c0.3,0.2,0.6,0.3,0.9,0.3c0.1,0,0.2,0.1,0.2,0.2c0,0.1,0,0.4-0.1,0.7c0,0.4-0.1,0.7-0.2,1.1
	c-0.1,0.2-0.2,0.4-0.2,0.4c-0.2,0.1-0.6,0.1-1.1,0.2c-0.5,0-1.1,0.1-1.7,0.1c-0.5,0-1.1,0.1-1.6,0.1c-0.5,0-1.1,0-1.6,0
	c-1.1,0-2.1,0-2.8,0c-0.7,0-1.3,0-1.7,0c-0.1,0-0.2,0-0.3,0c-0.1,0-0.2-0.1-0.2-0.1V117.3z M119.8,122.6l-0.9,2l-2.2-0.9l0.8-1.9
	L119.8,122.6z"/>
<path d="M131.7,119.8c-0.2-0.1-0.3-0.1-0.5-0.2c-0.1,0.7-0.3,1.4-0.5,2.1c-0.3,0.7-0.6,1.4-1,2c-0.4,0.6-0.9,1.1-1.4,1.4
	c-0.5,0.4-1.1,0.6-1.8,0.6c-0.3,0-0.6-0.1-0.9-0.2c-0.3-0.2-0.6-0.3-0.9-0.6c-0.3-0.2-0.6-0.5-0.8-0.8c-0.3-0.3-0.5-0.6-0.7-0.8
	c-0.2-0.3-0.3-0.5-0.5-0.8c-0.1-0.2-0.2-0.4-0.2-0.5c0-0.1,0-0.2,0.1-0.2c0.1,0,0.2,0.1,0.4,0.2c0.2,0.1,0.4,0.2,0.6,0.4
	c0.3,0.1,0.6,0.3,0.9,0.4c0.4,0.1,0.8,0.2,1.3,0.2c0.5,0,0.9-0.1,1.3-0.3c0.4-0.2,0.8-0.5,1.2-0.8c0.4-0.3,0.7-0.7,0.9-1.1
	c0.3-0.4,0.5-0.8,0.6-1.3c-0.3-0.8-1-1.7-2-2.6c0.3-0.6,0.5-1,0.6-1.3c0.1-0.3,0.3-0.6,0.3-0.7c0.1-0.2,0.1-0.3,0.2-0.3
	c0,0,0.1-0.1,0.1-0.1c0.1,0,0.2,0.1,0.4,0.2c0.2,0.2,0.3,0.4,0.5,0.6c0.2,0.3,0.4,0.6,0.5,0.9c0.2,0.3,0.3,0.7,0.4,1.1h1.2v2.7
	C132.1,119.8,131.9,119.8,131.7,119.8z"/>
<path d="M131.8,117.3c0-0.1,0.1-0.1,0.2-0.1c0.1,0,0.2,0,0.3,0h1.5c0.5,0,0.8-0.1,0.9-0.3c0.2-0.2,0.3-0.5,0.5-0.8
	c0.1-0.3,0.3-0.7,0.5-1.1s0.4-0.7,0.7-1.1c0.2-0.3,0.5-0.6,0.8-0.8c0.3-0.2,0.6-0.3,1-0.3c0.4,0,0.7,0.2,1,0.5
	c0.3,0.4,0.5,0.8,0.7,1.3c0.2,0.5,0.3,1,0.4,1.5c0.1,0.5,0.1,0.9,0.1,1.2c0,0.3,0,0.6-0.1,0.8c-0.1,0.3-0.1,0.5-0.2,0.7
	c-0.1,0.2-0.2,0.4-0.2,0.5c-0.1,0.1-0.1,0.2-0.2,0.2c-0.1,0.1-0.3,0.2-0.6,0.2c-0.3,0-0.6,0.1-1,0.1c-0.7,0-1.4-0.1-1.9-0.2
	c-0.6-0.1-1-0.4-1.5-0.9c-0.2,0.3-0.5,0.6-0.7,0.8c-0.3,0.2-0.6,0.3-0.9,0.3h-1c-0.1,0-0.2,0-0.3,0c-0.1,0-0.2-0.1-0.2-0.1V117.3z
	 M137.6,115.3c-0.3,0-0.6,0.1-0.9,0.4c-0.2,0.2-0.5,0.5-0.7,0.9c0.2,0.2,0.4,0.3,0.6,0.4c0.3,0.1,0.5,0.2,0.8,0.2
	c0.3,0.1,0.6,0.1,0.9,0.1c0.3,0,0.5,0,0.8,0c0-0.3-0.1-0.5-0.2-0.8c-0.1-0.2-0.2-0.5-0.4-0.7c-0.2-0.2-0.3-0.4-0.5-0.5
	C137.9,115.3,137.8,115.3,137.6,115.3z"/>
</svg>
