<?xml version="1.0" encoding="utf-8"?>
<!-- Generator: Adobe Illustrator 20.0.0, SVG Export Plug-In . SVG Version: 6.00 Build 0)  -->
<svg version="1.1" id="Layer_1" xmlns="http://www.w3.org/2000/svg" xmlns:xlink="http://www.w3.org/1999/xlink" x="0px" y="0px"
	 viewBox="0 0 41.6 41.6" style="enable-background:new 0 0 41.6 41.6;" xml:space="preserve">
<g>
	<path d="M20.8,0C9.3,0,0,9.3,0,20.8s9.3,20.8,20.8,20.8c11.5,0,20.8-9.3,20.8-20.8S32.3,0,20.8,0L20.8,0z M20.8,40
		C10.2,40,1.6,31.4,1.6,20.8c0-10.6,8.6-19.2,19.2-19.2C31.4,1.6,40,10.2,40,20.8C40,31.4,31.4,40,20.8,40L20.8,40z M20.8,40"/>
	<path d="M30.8,20h-9.2v-8.8c0-0.4-0.4-0.8-0.8-0.8c-0.4,0-0.8,0.4-0.8,0.8V20h-9.2c-0.4,0-0.8,0.4-0.8,0.8c0,0.4,0.4,0.8,0.8,0.8
		H20v9.6c0,0.4,0.4,0.8,0.8,0.8c0.4,0,0.8-0.4,0.8-0.8v-9.6h9.2c0.4,0,0.8-0.4,0.8-0.8C31.6,20.4,31.2,20,30.8,20L30.8,20z M30.8,20
		"/>
</g>
</svg>
