<?xml version="1.0" encoding="utf-8"?>
<!-- Generator: Adobe Illustrator 20.0.0, SVG Export Plug-In . SVG Version: 6.00 Build 0)  -->
<svg version="1.1" id="Layer_1" xmlns="http://www.w3.org/2000/svg" xmlns:xlink="http://www.w3.org/1999/xlink" x="0px" y="0px"
	 viewBox="0 0 375.5 512" style="enable-background:new 0 0 375.5 512;" xml:space="preserve">
<g>
	<g>
		<g>
			<path d="M375.5,8.5c0-4.7-3.8-8.5-8.5-8.5c-29,0-47,19.3-54.6,29.7c-22.6-8.5-52.1-12.6-90.5-12.6s-67.9,4.1-90.5,12.6
				C123.8,19.3,105.8,0,76.8,0c-4.7,0-8.5,3.8-8.5,8.5c0,30.3,6.4,66.4,8.2,76c-5.6,15.3-8.2,31.9-8.2,52
				c0,62.8,54.7,153.6,153.6,153.6s153.6-90.8,153.6-153.6c0-20.2-2.6-36.8-8.2-52C369.1,74.9,375.5,38.8,375.5,8.5z M221.9,273.1
				c-87.9,0-136.5-80.7-136.5-136.5c0-18.9,2.5-34.2,7.9-48.1c0.6-1.5,0.7-3.2,0.4-4.8c-0.1-0.4-6.9-34.8-8.2-65.7
				c14.5,2.9,24.4,12.3,29.9,19c-4.1,2.3-8,4.8-11.6,7.5c-3.7,2.9-4.4,8.2-1.5,12s8.2,4.4,12,1.5c21-16.2,55.2-23.8,107.6-23.8
				c52.4,0,86.6,7.6,107.6,23.8c1.6,1.2,3.4,1.8,5.2,1.8c2.6,0,5.1-1.1,6.8-3.3c2.9-3.7,2.2-9.1-1.5-12c-3.5-2.7-7.5-5.2-11.6-7.5
				c5.5-6.7,15.5-16.2,29.9-19c-1.3,30.9-8.1,65.4-8.2,65.7c-0.3,1.6-0.2,3.3,0.4,4.8c5.5,14,7.9,28.8,7.9,48.1
				C358.4,192.3,309.8,273.1,221.9,273.1z"/>
			<path d="M346,444.9c5.4-12.9,12.4-36.1,12.4-69.5c0-55.8-53.6-83.3-55.9-84.4c-4.2-2.1-9.3-0.4-11.4,3.8
				c-2.1,4.2-0.4,9.3,3.8,11.5c0.5,0.2,46.5,24,46.5,69.2c0,47.5-15.5,71.9-15.6,72.1c-1.7,2.6-1.9,6-0.4,8.8
				c1.5,2.8,4.4,4.5,7.5,4.5c25.6,0,25.6,12.8,25.6,17.1c0,11.2-12.9,17.1-25.6,17.1h-8.5c-4.7,0-8.5,3.8-8.5,8.5s3.8,8.5,8.5,8.5
				h8.5c24.7,0,42.7-14.4,42.7-34.1C375.5,460.3,364.7,448.5,346,444.9z"/>
			<path d="M119.5,494.9h-8.5c-12.7,0-25.6-5.9-25.6-17.1c0-4.2,0-17.1,25.6-17.1c3.1,0,6-1.7,7.5-4.5c1.5-2.8,1.3-6.1-0.4-8.7
				c-0.2-0.2-15.7-24.6-15.7-72.1c0-45.2,46-68.9,46.5-69.2c4.2-2.1,5.9-7.2,3.8-11.5c-2.1-4.2-7.2-5.9-11.4-3.8
				c-2.3,1.1-55.9,28.6-55.9,84.4c0,33.4,7,56.6,12.4,69.5c-18.7,3.6-29.5,15.4-29.5,32.9c0,19.8,17.9,34.1,42.7,34.1h8.5
				c4.7,0,8.5-3.8,8.5-8.5S124.2,494.9,119.5,494.9z"/>
			<path d="M76.8,384c0-4.7-3.8-8.5-8.5-8.5c-0.1,0-5.9-0.4-11.2-6.8c-6.1-7.4-15.1-27.1-6-77c4.4-23.9-7-38.2-19.4-41.4
				c-10.9-2.8-25.3,2.3-31.2,20.1c-1.5,4.5,0.9,9.3,5.4,10.8c4.5,1.5,9.3-0.9,10.8-5.4c2.2-6.5,6.5-10.1,10.8-9
				c5,1.3,9.2,8.7,6.8,21.8c-7.9,43.2-4.6,73.9,9.7,91c10.5,12.6,22.9,12.9,24.3,12.9C73,392.5,76.8,388.7,76.8,384z"/>
			<path d="M273.1,444.2c0.2-22.1,1.6-84.5,8.3-118.3c0.9-4.6-2.1-9.1-6.7-10c-4.7-0.9-9.1,2.1-10,6.7c-7.1,35.5-8.4,98.4-8.6,121.1
				H256c-4.7,0-8.5,3.8-8.5,8.5s3.8,8.5,8.5,8.5h8.5c25.6,0,25.6,12.8,25.6,17.1c0,11.2-12.9,17.1-25.6,17.1H256
				c-14.1,0-25.6-11.5-25.6-25.6V315.7c0-4.7-3.8-8.5-8.5-8.5s-8.5,3.8-8.5,8.5v153.6c0,14.1-11.5,25.6-25.6,25.6h-8.5
				c-12.7,0-25.6-5.9-25.6-17.1c0-4.2,0-17.1,25.6-17.1h8.5c4.7,0,8.5-3.8,8.5-8.5s-3.8-8.5-8.5-8.5h-0.1
				c-0.2-22.8-1.5-85.6-8.6-121.1c-0.9-4.6-5.4-7.6-10-6.7c-4.6,0.9-7.6,5.4-6.7,10c6.8,33.8,8.1,96.1,8.3,118.3
				c-21.5,2.5-34.1,14.7-34.1,33.7c0,19.8,17.9,34.1,42.7,34.1h8.5c13.9,0,26.3-6.7,34.1-17.1c7.8,10.4,20.2,17.1,34.1,17.1h8.5
				c24.7,0,42.7-14.4,42.7-34.1C307.2,458.9,294.6,446.7,273.1,444.2z"/>
			<path d="M277.3,110.9c-7.1,0-12.8,5.7-12.8,12.8s5.7,12.8,12.8,12.8s12.8-5.7,12.8-12.8S284.4,110.9,277.3,110.9z"/>
			<path d="M179.2,123.7c0-7.1-5.7-12.8-12.8-12.8s-12.8,5.7-12.8,12.8s5.7,12.8,12.8,12.8S179.2,130.8,179.2,123.7z"/>
			<path d="M277,222.8c-4.2-2.2-9.3-0.5-11.5,3.7c-1.5,2.8-7.2,3.9-9.5,3.9c-10.4,0-21.2-9.2-24.5-19.4c15-7.3,24.5-30,24.5-40.3
				c0-17.1-18.9-17.1-34.1-17.1s-34.1,0-34.1,17.1c0,10.2,9.5,33,24.5,40.3c-3.3,10.3-14.1,19.4-24.5,19.4c-1.2,0-7.7-0.7-9.6-4.1
				c-2.3-4.1-7.4-5.6-11.6-3.4c-4.1,2.3-5.7,7.4-3.4,11.6c6.9,12.6,22.8,13,24.6,13c13.3,0,26.1-7.6,34.1-18.4
				c8.1,10.8,20.9,18.4,34.1,18.4c1.8,0,18.1-0.4,24.7-13.2C282.8,230.1,281.2,225,277,222.8z M221.9,196.3c-7,0-16.2-17-17-24.6
				c3.2-1,11.4-1,17-1s13.8,0,17,1C238.1,179.2,228.9,196.3,221.9,196.3z"/>
		</g>
	</g>
</g>
</svg>
