<?xml version="1.0" encoding="utf-8"?>
<!-- Generator: Adobe Illustrator 20.0.0, SVG Export Plug-In . SVG Version: 6.00 Build 0)  -->
<svg version="1.1" id="Layer_1" xmlns="http://www.w3.org/2000/svg" xmlns:xlink="http://www.w3.org/1999/xlink" x="0px" y="0px"
	 viewBox="0 0 512 452.4" style="enable-background:new 0 0 512 452.4;" xml:space="preserve">
<g>
	<g>
		<path d="M409.6,8.7H136.5c-4.7,0-8.5,3.8-8.5,8.5v221.9c0,18.9,15.3,34.1,34.1,34.1h247.5c18.9,0,34.1-15.3,34.1-34.1V42.8
			C443.7,24,428.5,8.7,409.6,8.7z M426.7,239.1c0,9.4-7.6,17.1-17.1,17.1H162.1c-9.4,0-17.1-7.6-17.1-17.1V25.8h264.5
			c9.4,0,17.1,7.6,17.1,17.1L426.7,239.1L426.7,239.1z"/>
	</g>
</g>
<g>
	<g>
		<path d="M196.3,222h-17.1V205c0-4.7-3.8-8.5-8.5-8.5s-8.5,3.8-8.5,8.5v25.6c0,4.7,3.8,8.5,8.5,8.5h25.6c4.7,0,8.5-3.8,8.5-8.5
			S201,222,196.3,222z"/>
	</g>
</g>
<g>
	<g>
		<path d="M136.5,8.7H128c-18.9,0-34.1,15.3-34.1,34.1v76.8c0,18.9,15.3,34.1,34.1,34.1h8.5c4.7,0,8.5-3.8,8.5-8.5v-128
			C145.1,12.5,141.2,8.7,136.5,8.7z M128,136.7c-9.4,0-17.1-7.6-17.1-17.1V42.8c0-9.4,7.6-17.1,17.1-17.1V136.7z"/>
	</g>
</g>
<g>
	<g>
		<path d="M196.3,42.8c-18.9,0-34.1,15.3-34.1,34.1s15.3,34.1,34.1,34.1s34.1-15.3,34.1-34.1S215.1,42.8,196.3,42.8z M196.3,94
			c-9.4,0-17.1-7.6-17.1-17.1s7.6-17.1,17.1-17.1s17.1,7.6,17.1,17.1S205.7,94,196.3,94z"/>
	</g>
</g>
<g>
	<g>
		<path d="M285.9,94c-35.3,0-64,28.7-64,64s28.7,64,64,64c35.3,0,64-28.7,64-64C349.9,122.7,321.2,94,285.9,94z M285.9,205
			c-25.9,0-46.9-21-46.9-46.9c0-25.9,21-46.9,46.9-46.9c25.9,0,46.9,21,46.9,46.9C332.8,183.9,311.8,205,285.9,205z"/>
	</g>
</g>
<g>
	<g>
		<path d="M285.9,128.2c-16.5,0-29.9,13.4-29.9,29.9s13.4,29.9,29.9,29.9s29.9-13.4,29.9-29.9S302.4,128.2,285.9,128.2z
			 M285.9,170.8c-7.1,0-12.8-5.7-12.8-12.8s5.7-12.8,12.8-12.8s12.8,5.7,12.8,12.8S292.9,170.8,285.9,170.8z"/>
	</g>
</g>
<g>
	<g>
		<path d="M375.5,42.8c-18.9,0-34.1,15.3-34.1,34.1s15.3,34.1,34.1,34.1s34.1-15.3,34.1-34.1S394.3,42.8,375.5,42.8z M375.5,94
			c-9.4,0-17.1-7.6-17.1-17.1s7.6-17.1,17.1-17.1s17.1,7.6,17.1,17.1S384.9,94,375.5,94z"/>
	</g>
</g>
<g>
	<g>
		<path d="M469.3,25.8h-34.1c-4.7,0-8.5,3.8-8.5,8.5V77c0,4.7,3.8,8.5,8.5,8.5h34.1c4.7,0,8.5-3.8,8.5-8.5V34.3
			C477.9,29.6,474,25.8,469.3,25.8z M460.8,68.4h-17.1V42.8h17.1V68.4z"/>
	</g>
</g>
<g>
	<g>
		<path d="M511.1,13.4c-2.1-4.2-7.3-5.9-11.5-3.8l-34.1,17.1c-2.9,1.4-4.7,4.4-4.7,7.6V77c0,3.2,1.8,6.1,4.7,7.6l34.1,17.1
			c1.2,0.6,2.5,0.9,3.8,0.9c4.7,0,8.5-3.8,8.5-8.5V17.2C512,15.9,511.7,14.6,511.1,13.4z M494.9,80.2l-17.1-8.5V39.6l17.1-8.5V80.2z
			"/>
	</g>
</g>
<g>
	<g>
		<path d="M105.8,34.9L25.6,2.3C23,0.8,20,0,16.9,0C7.5,0.1-0.1,7.8,0,17.2v128c0,9.4,7.6,17.1,17.1,17.1c3,0,5.9-0.7,8.5-2.1
			l80-32.6c3.2-1.3,5.3-4.5,5.3-7.9V42.8C111,39.4,109,36.3,105.8,34.9z M93.9,113.9l-75.5,30.6l-1.3,0.7v-128l1.3,0.7l75.5,30.6
			V113.9z"/>
	</g>
</g>
<g>
	<g>
		<rect x="237" y="177.2" transform="matrix(0.7071 -0.7071 0.7071 0.7071 -55.71 236.94)" width="42.2" height="17.1"/>
	</g>
</g>
<g>
	<g>
		<path d="M384.4,264.3c-0.2-4.7-4.2-8.3-8.9-8.1H221.9c-4.7,0-8.5,3.8-8.5,8.5v17.1c0,14.1,11.5,25.6,25.6,25.6h12.8
			c11.7,0.1,21.2,9.6,21.3,21.3c0,0.5,0,1-0.1,1.5c-1.1,11.9-11.6,20.7-23.6,19.6c-3.7-0.3-7.1,1.9-8.5,5.3l-25.6,62
			c-1.3,3.1-1.9,6.4-1.9,9.7c0,14.1,11.4,25.6,25.6,25.6h65.7c10.6,0.1,20.1-6.3,24.1-16.1l55.3-169
			C384.3,266.3,384.5,265.3,384.4,264.3z M312.4,430.3c-1.4,3.1-4.4,5-7.8,5h-65.7c-1.1,0-2.1-0.2-3.1-0.6
			c-4.4-1.7-6.5-6.7-4.8-11.1l23.3-56.6h-0.1c21.2-0.7,37.8-18.5,37.1-39.7s-18.5-37.8-39.7-37.1h-12.8c-4.7,0-8.5-3.8-8.5-8.5v-8.5
			h133.2L312.4,430.3z"/>
	</g>
</g>
<g>
	<g>
		<path d="M366.9,222h-25.6c-4.7,0-8.5,3.8-8.5,8.5s3.8,8.5,8.5,8.5h25.6c4.7,0,8.5-3.8,8.5-8.5S371.6,222,366.9,222z"/>
	</g>
</g>
<g>
	<g>
		<path d="M401.2,222c-4.7,0-8.6,3.8-8.6,8.5c0,4.7,3.8,8.6,8.5,8.6c2.3,0,4.4-0.9,6.1-2.5c1.6-1.6,2.5-3.8,2.5-6
			C409.7,225.9,405.9,222,401.2,222z"/>
	</g>
</g>
</svg>
