<?xml version="1.0" encoding="utf-8"?>
<!-- Generator: Adobe Illustrator 20.0.0, SVG Export Plug-In . SVG Version: 6.00 Build 0)  -->
<svg version="1.1" id="Layer_1" xmlns="http://www.w3.org/2000/svg" xmlns:xlink="http://www.w3.org/1999/xlink" x="0px" y="0px"
	 viewBox="0 0 47.9 45.4" style="enable-background:new 0 0 47.9 45.4;" xml:space="preserve">
<style type="text/css">
	.st0{clip-path:url(#SVGID_2_);}
</style>
<g>
	<g>
		<defs>
			<rect id="SVGID_1_" x="0.5" y="0.1" width="47" height="45.8"/>
		</defs>
		<clipPath id="SVGID_2_">
			<use xlink:href="#SVGID_1_"  style="overflow:visible;"/>
		</clipPath>
		<path class="st0" d="M24,0.3C11,0.3,0.5,9.8,0.5,21.5c0,4.1,1.3,8,3.7,11.4C3.7,38,2.5,41.8,0.7,43.6c-0.2,0.2-0.3,0.6-0.1,0.9
			C0.7,44.8,0.9,45,1.2,45c0,0,0.1,0,0.1,0c0.3,0,7.7-1.1,13-4.2c3,1.2,6.3,1.8,9.6,1.8c13,0,23.5-9.5,23.5-21.2
			C47.5,9.8,36.9,0.3,24,0.3L24,0.3z M24,41c-2.7,0-5.4-0.4-7.9-1.3c3.2-2,3.2-2.1,3.2-2.6c0-0.3-0.1-0.5-0.4-0.7
			c-0.4-0.2-0.8-0.1-1,0.2c-0.4,0.3-2.3,1.5-3.9,2.5c-3.5,2.1-8.2,3.3-10.8,3.8c1.7-2.9,2.4-7,2.7-10.3c0-0.2,0-0.4-0.1-0.5
			C3.3,29,2,25.3,2,21.5C2,10.7,11.9,1.9,24,1.9c12.1,0,21.9,8.8,21.9,19.6C45.9,32.3,36.1,41,24,41L24,41z M24,41"/>
	</g>
	<path d="M13,16h11.8c0.4,0,0.8-0.4,0.8-0.8c0-0.4-0.4-0.8-0.8-0.8H13c-0.4,0-0.8,0.4-0.8,0.8C12.2,15.6,12.6,16,13,16L13,16z
		 M13,16"/>
	<path d="M34.9,20.7H13c-0.4,0-0.8,0.4-0.8,0.8c0,0.4,0.4,0.8,0.8,0.8h21.9c0.4,0,0.8-0.3,0.8-0.8C35.7,21,35.4,20.7,34.9,20.7
		L34.9,20.7z M34.9,20.7"/>
	<path d="M34.9,27H13c-0.4,0-0.8,0.4-0.8,0.8c0,0.4,0.4,0.8,0.8,0.8h21.9c0.4,0,0.8-0.4,0.8-0.8C35.7,27.3,35.4,27,34.9,27L34.9,27z
		 M34.9,27"/>
</g>
</svg>
