<?xml version="1.0" encoding="utf-8"?>
<!-- Generator: Adobe Illustrator 22.0.1, SVG Export Plug-In . SVG Version: 6.00 Build 0)  -->
<svg version="1.1" id="Capa_1" xmlns="http://www.w3.org/2000/svg" xmlns:xlink="http://www.w3.org/1999/xlink" x="0px" y="0px"
	 viewBox="0 0 512 393.4" style="enable-background:new 0 0 512 393.4;" xml:space="preserve">
<style type="text/css">
	.st0{fill:#F5DEB3;}
</style>
<path id="_x34_9-HD_icon" class="st0" d="M491.7,0H20.3C9.1,0,0,9.1,0,20.3v352.8c0,11.2,9.1,20.3,20.3,20.3h471.4
	c11.2,0,20.3-9.1,20.3-20.3V20.3C512,9.1,502.9,0,491.7,0z M183.6,276.1l17.6-61.7h-65.8l-17.6,61.7H77.4l45.3-158.8h40.4
	l-18.7,65.3h65.8l18.7-65.3h40.4l-45.4,158.8H183.6L183.6,276.1z M431,196.7c-13.4,46.9-57.6,79.4-108.6,79.4h-66.7l30-104.9H326
	l-20.8,72.7H334c24.7,0,47.9-19,55.8-46.9c8-28.1-5.1-47.4-30.7-47.4h-67.4l9.2-32.2h68.3C419.2,117.3,444.4,149.5,431,196.7z"/>
</svg>
