<?xml version="1.0" encoding="utf-8"?>
<!-- Generator: Adobe Illustrator 20.0.0, SVG Export Plug-In . SVG Version: 6.00 Build 0)  -->
<svg version="1.1" id="Layer_1" xmlns="http://www.w3.org/2000/svg" xmlns:xlink="http://www.w3.org/1999/xlink" x="0px" y="0px"
	 viewBox="0 0 221.5 221.5" style="enable-background:new 0 0 221.5 221.5;" xml:space="preserve">
<style type="text/css">
	.st0{fill:#EB008A;}
	.st1{fill:none;}
	.st2{fill:#FFFFFF;}
</style>
<circle class="st0" cx="110.8" cy="110.8" r="110.8"/>
<rect x="42.5" y="42.5" class="st1" width="136.5" height="136.6"/>
<g>
	<path class="st2" d="M110.8,190.3c-43.9,0-79.5-35.7-79.5-79.5c0-43.9,35.7-79.5,79.5-79.5c43.9,0,79.5,35.7,79.5,79.5
		C190.3,154.6,154.6,190.3,110.8,190.3L110.8,190.3z M110.8,36C69.6,36,36,69.6,36,110.8c0,41.2,33.5,74.7,74.7,74.7
		c41.2,0,74.7-33.5,74.7-74.7C185.5,69.6,152,36,110.8,36L110.8,36z M110.8,36"/>
	<path class="st2" d="M110.8,190.3c-16.5,0-32.5-5.1-46-14.7c-0.7-0.5-1.1-1.4-1-2.3c0.1-0.9,0.7-1.6,1.5-2
		c20-7.4,23.2-13.4,23.2-24.9c0-3.1-0.7-4-1.9-5.9c-1.7-2.4-3.9-5.7-5.4-14.2c-0.2-1.2-0.4-1.3-1.5-1.8c-2.9-1.4-5.6-3.4-6.3-12.7
		c0-4.5,1.5-6.9,2.8-8.2c-0.3-1.6-0.8-4.4-1.2-7.3c-2.2-13.4-2.3-29.8,16.5-37.4c16.4-6.6,29.5-3,33.6,1.3
		c2.9,0.1,10.4,0.9,15.6,6.9c8.1,9.3,5.5,30.7,4.6,36.4c1.3,1.3,2.8,3.7,2.8,8.1c-0.7,9.4-3.4,11.4-6.3,12.9
		c-1.1,0.5-1.3,0.6-1.5,1.8c-1.6,8.5-3.8,11.8-5.4,14.2c-1.2,1.8-1.9,2.8-1.9,5.9c0,11.5,3.2,17.5,23.2,24.9c0.8,0.3,1.4,1.1,1.6,2
		c0.1,0.9-0.3,1.8-1,2.3C143.2,185.2,127.3,190.3,110.8,190.3L110.8,190.3z M71.3,174.2c11.9,7.4,25.4,11.3,39.5,11.3
		c14,0,27.6-3.9,39.5-11.3c-16.7-6.9-22-13.8-22-27.8c0-4.5,1.3-6.5,2.8-8.6c1.5-2.1,3.3-4.8,4.7-12.3c0.7-3.6,2.8-4.6,4.2-5.3
		c1.5-0.7,3-1.5,3.6-8.7c0-3.7-1.7-4.7-1.7-4.7c-0.9-0.5-1.5-1.6-1.3-2.6c1.2-6.4,3.2-26.4-3.3-33.9c-4.4-5.1-11.3-5.2-12.7-5.2
		c-0.2,0-0.4,0-0.6-0.1c-0.6-0.2-1.7-0.7-2-1.3c-1.3-2.2-12.7-6.8-28.5-0.4c-15.6,6.3-15.6,19.8-13.6,32.2c0.7,4.6,1.4,8.6,1.4,8.6
		c0.2,1.1-0.3,2.2-1.4,2.6c0,0-1.6,1-1.6,4.9c0.5,7.1,2.1,7.8,3.6,8.5c1.4,0.7,3.5,1.7,4.2,5.3c1.4,7.5,3.2,10.2,4.7,12.3
		c1.4,2.1,2.8,4,2.8,8.6C93.3,160.4,88.1,167.3,71.3,174.2L71.3,174.2z M71.3,174.2"/>
</g>
</svg>
