<?xml version="1.0" encoding="utf-8"?>
<!-- Generator: Adobe Illustrator 20.0.0, SVG Export Plug-In . SVG Version: 6.00 Build 0)  -->
<svg version="1.1" id="Layer_1" xmlns="http://www.w3.org/2000/svg" xmlns:xlink="http://www.w3.org/1999/xlink" x="0px" y="0px"
	 viewBox="0 0 315.3 222.3" style="enable-background:new 0 0 315.3 222.3;" xml:space="preserve">
<style type="text/css">
	.st0{fill:#00A69C;}
</style>
<g>
	<path class="st0" d="M213.5,77.9c-10.1-5.5-20.9-5.6-32-3.8c0,25,0,49.6,0,75.1c4.3,0,8.5,0.2,12.7,0c17.9-1,30-10.2,33.4-26.6
		c1.4-6.7,1.6-14,1-20.8C227.6,91.5,222.9,83,213.5,77.9z"/>
	<path class="st0" d="M303.3,0H275c-0.5,0-0.9,0-1.4,0.1c-1,0-2-0.1-3.1-0.1c-37.4,0-74.9,0-112.3,0C120.6,0,83.1,0,45.5,0
		c-1.2,0-2.4,0-3.5,0.1C41.4,0,40.9,0,40.3,0H12C5.4,0,0,5.4,0,12v198.3c0,6.6,5.4,12,12,12h28.3c0.6,0,1.1-0.1,1.7-0.1
		c1.3,0.1,2.6,0.1,3.9,0.1c75.1,0,150.3,0,225.4,0c0.8,0,1.7,0,2.5-0.1c0.4,0,0.8,0.1,1.2,0.1h28.3c6.6,0,12-5.4,12-12V12
		C315.3,5.4,309.9,0,303.3,0z M122.1,162.7c-11,6.6-23.2,8.1-35.6,6.7c-7.8-0.9-15.4-3.4-23.1-5.1c-2.7-0.6-3.5-2.1-2.7-4.9
		c1.6-5.7,3-11.4,4.5-17.7c9.5,4.4,18.9,7.2,28.9,6.8c4-0.2,8.3-0.9,11.8-2.6c7.2-3.4,8.3-12.8,2.1-17.8c-3.8-3-8.5-4.6-12.8-6.9
		c-7.1-3.6-15-6.3-21.3-11.1c-17.9-13.4-16.3-38.8,2.8-50.6c10.6-6.6,22.3-7.8,34.4-6.9c7.7,0.6,15.2,2,22.5,5.6
		c-1.9,6.8-3.7,13.5-5.7,20.4c-8.8-3.9-17.8-5.9-27.2-5c-0.9,0.1-1.9,0.2-2.8,0.4c-5.8,1.3-9.7,4.8-10.2,9.2
		c-0.6,5.6,2.6,9,7.2,11.2c5.3,2.6,10.9,4.6,16.3,7.1c4.2,1.9,8.5,3.8,12.3,6.3C143.7,121.3,143,150.3,122.1,162.7z M256.4,112.6
		c-1,13.2-4.3,25.5-12.9,36c-9,10.9-21.2,15.9-34.6,18.5c-16.9,3.3-34,2.5-51,0.8c-0.6-0.1-1.3-0.3-2.1-0.5c0-37.4,0-74.4,0-111.8
		c21.1-2.5,42-4.5,62.8,1C244.4,63.5,258.5,85,256.4,112.6z"/>
</g>
</svg>
