<?xml version="1.0" encoding="utf-8"?>
<!-- Generator: Adobe Illustrator 22.0.1, SVG Export Plug-In . SVG Version: 6.00 Build 0)  -->
<svg version="1.1" id="Layer_1" xmlns="http://www.w3.org/2000/svg" xmlns:xlink="http://www.w3.org/1999/xlink" x="0px" y="0px"
	 viewBox="0 0 64 64" style="enable-background:new 0 0 64 64;" xml:space="preserve">
<style type="text/css">
	.st0{fill:#FFFFFF;}
</style>
<path class="st0" d="M5,8c-1.7,0-3,1.4-3,3v42c0,1.6,1.3,3,3,3h54c1.7,0,3-1.4,3-3V11c0-1.6-1.3-3-3-3H5z M5,10h54c0.6,0,1,0.5,1,1
	v42c0,0.6-0.4,1-1,1H5c-0.6,0-1-0.5-1-1V11C4,10.4,4.4,10,5,10z M7,12c-0.6,0-1,0.4-1,1v2c0,0.6,0.4,1,1,1s1-0.4,1-1v-2
	C8,12.4,7.6,12,7,12z M12,12c-0.6,0-1,0.4-1,1v2c0,0.6,0.4,1,1,1s1-0.4,1-1v-2C13,12.4,12.6,12,12,12z M17,12c-0.6,0-1,0.4-1,1v2
	c0,0.6,0.4,1,1,1s1-0.4,1-1v-2C18,12.4,17.6,12,17,12z M22,12c-0.6,0-1,0.4-1,1v2c0,0.6,0.4,1,1,1s1-0.4,1-1v-2
	C23,12.4,22.6,12,22,12z M27,12c-0.6,0-1,0.4-1,1v2c0,0.6,0.4,1,1,1s1-0.4,1-1v-2C28,12.4,27.6,12,27,12z M32,12c-0.6,0-1,0.4-1,1v2
	c0,0.6,0.4,1,1,1c0.6,0,1-0.4,1-1v-2C33,12.4,32.6,12,32,12z M37,12c-0.6,0-1,0.4-1,1v2c0,0.6,0.4,1,1,1s1-0.4,1-1v-2
	C38,12.4,37.6,12,37,12z M42,12c-0.6,0-1,0.4-1,1v2c0,0.6,0.4,1,1,1s1-0.4,1-1v-2C43,12.4,42.6,12,42,12z M47,12c-0.6,0-1,0.4-1,1v2
	c0,0.6,0.4,1,1,1s1-0.4,1-1v-2C48,12.4,47.6,12,47,12z M52,12c-0.6,0-1,0.4-1,1v2c0,0.6,0.4,1,1,1s1-0.4,1-1v-2
	C53,12.4,52.6,12,52,12z M57,12c-0.6,0-1,0.4-1,1v2c0,0.6,0.4,1,1,1s1-0.4,1-1v-2C58,12.4,57.6,12,57,12z M7,18c-0.6,0-1,0.4-1,1
	s0.4,1,1,1h7h2h2h28h2h3h6c0.6,0,1-0.4,1-1s-0.4-1-1-1H7z M7,44c-0.6,0-1,0.4-1,1s0.4,1,1,1h50c0.6,0,1-0.4,1-1s-0.4-1-1-1h-6h-3h-2
	H18h-2h-2H7z M7,48c-0.6,0-1,0.4-1,1v2c0,0.6,0.4,1,1,1s1-0.4,1-1v-2C8,48.4,7.6,48,7,48z M12,48c-0.6,0-1,0.4-1,1v2
	c0,0.6,0.4,1,1,1s1-0.4,1-1v-2C13,48.4,12.6,48,12,48z M17,48c-0.6,0-1,0.4-1,1v2c0,0.6,0.4,1,1,1s1-0.4,1-1v-2
	C18,48.4,17.6,48,17,48z M22,48c-0.6,0-1,0.4-1,1v2c0,0.6,0.4,1,1,1s1-0.4,1-1v-2C23,48.4,22.6,48,22,48z M27,48c-0.6,0-1,0.4-1,1v2
	c0,0.6,0.4,1,1,1s1-0.4,1-1v-2C28,48.4,27.6,48,27,48z M32,48c-0.6,0-1,0.4-1,1v2c0,0.6,0.4,1,1,1c0.6,0,1-0.4,1-1v-2
	C33,48.4,32.6,48,32,48z M37,48c-0.6,0-1,0.4-1,1v2c0,0.6,0.4,1,1,1s1-0.4,1-1v-2C38,48.4,37.6,48,37,48z M42,48c-0.6,0-1,0.4-1,1v2
	c0,0.6,0.4,1,1,1s1-0.4,1-1v-2C43,48.4,42.6,48,42,48z M47,48c-0.6,0-1,0.4-1,1v2c0,0.6,0.4,1,1,1s1-0.4,1-1v-2
	C48,48.4,47.6,48,47,48z M52,48c-0.6,0-1,0.4-1,1v2c0,0.6,0.4,1,1,1s1-0.4,1-1v-2C53,48.4,52.6,48,52,48z M57,48c-0.6,0-1,0.4-1,1v2
	c0,0.6,0.4,1,1,1s1-0.4,1-1v-2C58,48.4,57.6,48,57,48z"/>
<g id="Page-1_1_">
	<g id="number-0_1_">
		<g id="Page-1_2_" transform="translate(6.000000, 2.000000)">
			<path id="Fill-1_1_" class="st0" d="M46.4,29.7c0-1.4-0.1-2.6-0.2-3.5c-0.2-0.9-0.4-1.6-0.9-2.1c-0.4-0.4-0.9-0.7-1.6-0.7
				c-1,0-1.7,0.5-2.1,1.6C41.2,26,41,27.6,41,29.8c0,1.4,0.1,2.7,0.2,3.6c0.2,0.9,0.4,1.6,0.9,2.1c0.4,0.5,0.9,0.7,1.6,0.7
				s1.2-0.3,1.6-0.8c0.4-0.5,0.7-1.2,0.9-2.1C46.3,32.4,46.4,31.2,46.4,29.7 M49.5,29.9c0,1.3-0.1,2.4-0.2,3.3
				c-0.1,0.9-0.4,1.8-0.9,2.5c-0.5,0.9-1.2,1.6-2,2.1c-0.8,0.5-1.7,0.8-2.7,0.8c-1.2,0-2.2-0.3-3.1-1c-0.9-0.7-1.6-1.6-2.1-2.8
				c-0.2-0.6-0.4-1.4-0.5-2.1c-0.1-0.8-0.2-1.6-0.2-2.6c0-1.2,0.1-2.3,0.2-3.2c0.2-0.9,0.4-1.8,0.6-2.4c0.4-1.1,1.1-2,1.9-2.6
				c0.9-0.6,1.9-0.9,3-0.9c0.8,0,1.5,0.1,2.1,0.4s1.2,0.6,1.7,1.1s0.9,1.1,1.2,1.9C49.2,25.7,49.5,27.5,49.5,29.9"/>
			<path id="Stroke-3_1_" class="st0" d="M46.4,29.7c0-1.4-0.1-2.6-0.2-3.5c-0.2-0.9-0.4-1.6-0.9-2.1c-0.4-0.4-0.9-0.7-1.6-0.7
				c-1,0-1.7,0.5-2.1,1.6C41.2,26,41,27.6,41,29.8c0,1.4,0.1,2.7,0.2,3.6c0.2,0.9,0.4,1.6,0.9,2.1c0.4,0.5,0.9,0.7,1.6,0.7
				s1.2-0.3,1.6-0.8c0.4-0.5,0.7-1.2,0.9-2.1C46.3,32.4,46.4,31.2,46.4,29.7L46.4,29.7z M49.5,29.9c0,1.3-0.1,2.4-0.2,3.3
				c-0.1,0.9-0.4,1.8-0.9,2.5c-0.5,0.9-1.2,1.6-2,2.1c-0.8,0.5-1.7,0.8-2.7,0.8c-1.2,0-2.2-0.3-3.1-1c-0.9-0.7-1.6-1.6-2.1-2.8
				c-0.2-0.6-0.4-1.4-0.5-2.1c-0.1-0.8-0.2-1.6-0.2-2.6c0-1.2,0.1-2.3,0.2-3.2c0.2-0.9,0.4-1.8,0.6-2.4c0.4-1.1,1.1-2,1.9-2.6
				c0.9-0.6,1.9-0.9,3-0.9c0.8,0,1.5,0.1,2.1,0.4s1.2,0.6,1.7,1.1s0.9,1.1,1.2,1.9C49.2,25.7,49.5,27.5,49.5,29.9L49.5,29.9z"/>
		</g>
	</g>
</g>
<g id="Page-1_4_">
	<g id="number-0">
		<g id="Page-1_5_" transform="translate(6.000000, 2.000000)">
			<path id="Fill-1_2_" class="st0" d="M21.2,29.9c0-1.4-0.1-2.6-0.2-3.5c-0.2-0.9-0.4-1.6-0.9-2.1c-0.4-0.4-0.9-0.7-1.6-0.7
				c-1,0-1.7,0.5-2.1,1.6c-0.4,1.1-0.6,2.6-0.6,4.8c0,1.4,0.1,2.7,0.2,3.6c0.2,0.9,0.4,1.6,0.9,2.1c0.4,0.5,0.9,0.7,1.6,0.7
				c0.7,0,1.2-0.3,1.6-0.8c0.4-0.5,0.7-1.2,0.9-2.1C21.1,32.6,21.2,31.4,21.2,29.9 M24.3,30.1c0,1.3-0.1,2.4-0.2,3.3
				c-0.1,0.9-0.4,1.8-0.9,2.5c-0.5,0.9-1.2,1.6-2,2.1c-0.8,0.5-1.7,0.8-2.7,0.8c-1.2,0-2.2-0.3-3.1-1s-1.6-1.6-2.1-2.8
				c-0.2-0.6-0.4-1.4-0.5-2.1c-0.1-0.8-0.2-1.6-0.2-2.6c0-1.2,0.1-2.3,0.2-3.2c0.2-0.9,0.4-1.8,0.6-2.4c0.4-1.1,1.1-2,1.9-2.6
				c0.9-0.6,1.9-0.9,3-0.9c0.8,0,1.5,0.1,2.1,0.4c0.7,0.3,1.2,0.6,1.7,1.1c0.5,0.5,0.9,1.1,1.2,1.9C24,26,24.3,27.8,24.3,30.1"/>
			<path id="Stroke-3_2_" class="st0" d="M21.2,29.9c0-1.4-0.1-2.6-0.2-3.5c-0.2-0.9-0.4-1.6-0.9-2.1c-0.4-0.4-0.9-0.7-1.6-0.7
				c-1,0-1.7,0.5-2.1,1.6c-0.4,1.1-0.6,2.6-0.6,4.8c0,1.4,0.1,2.7,0.2,3.6c0.2,0.9,0.4,1.6,0.9,2.1c0.4,0.5,0.9,0.7,1.6,0.7
				c0.7,0,1.2-0.3,1.6-0.8c0.4-0.5,0.7-1.2,0.9-2.1C21.1,32.6,21.2,31.4,21.2,29.9L21.2,29.9z M24.3,30.1c0,1.3-0.1,2.4-0.2,3.3
				c-0.1,0.9-0.4,1.8-0.9,2.5c-0.5,0.9-1.2,1.6-2,2.1c-0.8,0.5-1.7,0.8-2.7,0.8c-1.2,0-2.2-0.3-3.1-1s-1.6-1.6-2.1-2.8
				c-0.2-0.6-0.4-1.4-0.5-2.1c-0.1-0.8-0.2-1.6-0.2-2.6c0-1.2,0.1-2.3,0.2-3.2c0.2-0.9,0.4-1.8,0.6-2.4c0.4-1.1,1.1-2,1.9-2.6
				c0.9-0.6,1.9-0.9,3-0.9c0.8,0,1.5,0.1,2.1,0.4c0.7,0.3,1.2,0.6,1.7,1.1c0.5,0.5,0.9,1.1,1.2,1.9C24,26,24.3,27.8,24.3,30.1
				L24.3,30.1z"/>
		</g>
	</g>
</g>
<g id="Page-1_3_">
	<g id="number-8">
		<g id="Page-1_6_" transform="translate(6.000000, 2.000000)">
			<path id="Fill-1_3_" class="st0" d="M31,23.5c-0.7,0-1.2,0.2-1.6,0.7c-0.4,0.5-0.6,1-0.6,1.7c0,0.7,0.2,1.2,0.6,1.6
				c0.4,0.4,1,0.7,1.6,0.7c0.3,0,0.6-0.1,0.9-0.2c0.3-0.1,0.5-0.3,0.7-0.5c0.2-0.2,0.4-0.4,0.5-0.7c0.1-0.3,0.2-0.6,0.2-0.9
				c0-0.5-0.1-0.9-0.3-1.2c-0.2-0.4-0.5-0.7-0.8-0.9C31.9,23.6,31.5,23.5,31,23.5 M33.7,33.4c0-0.6-0.1-1.1-0.3-1.6
				c-0.2-0.4-0.6-0.8-1-1c-0.4-0.2-0.9-0.4-1.4-0.4c-0.7,0-1.4,0.3-1.9,0.8c-0.5,0.5-0.7,1.3-0.7,2.2c0,0.6,0.1,1.1,0.4,1.6
				c0.2,0.5,0.6,0.8,1,1.1c0.4,0.3,0.9,0.4,1.4,0.4c0.5,0,1-0.1,1.4-0.4c0.4-0.3,0.7-0.6,1-1.1C33.6,34.6,33.7,34.1,33.7,33.4
				 M25.9,25.8c0-0.8,0.2-1.5,0.6-2.2c0.4-0.7,1-1.2,1.7-1.6c0.8-0.4,1.7-0.6,2.7-0.6c0.9,0,1.6,0.1,2.3,0.4c0.7,0.2,1.2,0.6,1.6,1
				c0.4,0.4,0.8,0.9,1,1.4c0.2,0.5,0.3,1.1,0.3,1.7c0,0.8-0.2,1.4-0.5,2c-0.4,0.6-0.9,1.1-1.6,1.5c0.6,0.3,1.1,0.6,1.5,1
				c0.4,0.4,0.7,0.9,0.9,1.4c0.2,0.5,0.3,1.2,0.3,1.8c0,1-0.2,1.9-0.7,2.7c-0.4,0.8-1.1,1.4-1.9,1.9c-0.9,0.4-1.9,0.7-3,0.7
				c-1.2,0-2.2-0.2-3.1-0.7c-0.9-0.4-1.5-1.1-1.9-1.9s-0.7-1.7-0.7-2.6c0-2.1,0.9-3.5,2.8-4.3C26.7,28.5,25.9,27.4,25.9,25.8"/>
			<path id="Stroke-3_3_" class="st0" d="M31,23.5c-0.7,0-1.2,0.2-1.6,0.7c-0.4,0.5-0.6,1-0.6,1.7c0,0.7,0.2,1.2,0.6,1.6
				c0.4,0.4,1,0.7,1.6,0.7c0.3,0,0.6-0.1,0.9-0.2c0.3-0.1,0.5-0.3,0.7-0.5c0.2-0.2,0.4-0.4,0.5-0.7c0.1-0.3,0.2-0.6,0.2-0.9
				c0-0.5-0.1-0.9-0.3-1.2c-0.2-0.4-0.5-0.7-0.8-0.9C31.9,23.6,31.5,23.5,31,23.5L31,23.5z M33.7,33.4c0-0.6-0.1-1.1-0.3-1.6
				c-0.2-0.4-0.6-0.8-1-1c-0.4-0.2-0.9-0.4-1.4-0.4c-0.7,0-1.4,0.3-1.9,0.8c-0.5,0.5-0.7,1.3-0.7,2.2c0,0.6,0.1,1.1,0.4,1.6
				c0.2,0.5,0.6,0.8,1,1.1c0.4,0.3,0.9,0.4,1.4,0.4c0.5,0,1-0.1,1.4-0.4c0.4-0.3,0.7-0.6,1-1.1C33.6,34.6,33.7,34.1,33.7,33.4
				L33.7,33.4z M25.9,25.8c0-0.8,0.2-1.5,0.6-2.2c0.4-0.7,1-1.2,1.7-1.6c0.8-0.4,1.7-0.6,2.7-0.6c0.9,0,1.6,0.1,2.3,0.4
				c0.7,0.2,1.2,0.6,1.6,1c0.4,0.4,0.8,0.9,1,1.4c0.2,0.5,0.3,1.1,0.3,1.7c0,0.8-0.2,1.4-0.5,2c-0.4,0.6-0.9,1.1-1.6,1.5
				c0.6,0.3,1.1,0.6,1.5,1c0.4,0.4,0.7,0.9,0.9,1.4c0.2,0.5,0.3,1.2,0.3,1.8c0,1-0.2,1.9-0.7,2.7c-0.4,0.8-1.1,1.4-1.9,1.9
				c-0.9,0.4-1.9,0.7-3,0.7c-1.2,0-2.2-0.2-3.1-0.7c-0.9-0.4-1.5-1.1-1.9-1.9s-0.7-1.7-0.7-2.6c0-2.1,0.9-3.5,2.8-4.3
				C26.7,28.5,25.9,27.4,25.9,25.8L25.9,25.8z"/>
		</g>
	</g>
</g>
<g id="Page-1_7_">
	<g id="number-1">
		<g id="Page-1" transform="translate(9.000000, 2.000000)">
			<path id="Stroke-3" class="st0" d="M4.5,36.7V26.2c-1.9,1.5-3.2,2.2-3.9,2.2c-0.3,0-0.6-0.1-0.9-0.4c-0.2-0.3-0.4-0.6-0.4-0.9
				c0-0.4,0.1-0.7,0.4-0.9C0,26.1,0.4,25.9,1,25.6c0.9-0.4,1.7-0.9,2.2-1.4c0.6-0.5,1-1,1.5-1.6c0.4-0.6,0.7-1,0.8-1.1
				c0.1-0.1,0.4-0.2,0.7-0.2c0.4,0,0.7,0.2,1,0.5c0.2,0.3,0.4,0.7,0.4,1.3v13.2c0,1.5-0.5,2.3-1.6,2.3c-0.5,0-0.8-0.2-1.1-0.5
				C4.6,37.8,4.5,37.3,4.5,36.7L4.5,36.7z"/>
		</g>
	</g>
</g>
</svg>
