<?xml version="1.0" encoding="utf-8"?>
<!-- Generator: Adobe Illustrator 20.0.0, SVG Export Plug-In . SVG Version: 6.00 Build 0)  -->
<svg version="1.1" id="Layer_1" xmlns="http://www.w3.org/2000/svg" xmlns:xlink="http://www.w3.org/1999/xlink" x="0px" y="0px"
	 viewBox="0 0 391.8 391.8" style="enable-background:new 0 0 391.8 391.8;" xml:space="preserve">
<g>
	<path d="M350.6,0H41.3C18.5,0,0,18.6,0,41.3v309.3c0,22.8,18.6,41.3,41.3,41.3h309.3c22.8,0,41.3-18.6,41.3-41.3V41.3
		C391.8,18.6,373.3,0,350.6,0L350.6,0z M372.2,350.6c0,11.9-9.8,21.7-21.7,21.7H41.3c-11.9,0-21.7-9.8-21.7-21.7V41.3
		c0-11.9,9.8-21.7,21.7-21.7h309.3c11.9,0,21.7,9.8,21.7,21.7V350.6z M372.2,350.6"/>
	<path d="M255.2,136.6c-3.8-3.8-10-3.8-13.8,0l-45.4,45.4l-45.4-45.4c-3.8-3.8-10-3.8-13.8,0c-3.8,3.8-3.8,10,0,13.8l45.4,45.4
		l-45.4,45.4c-3.8,3.8-3.8,10,0,13.8c1.9,1.9,4.4,2.9,7,2.9c2.6,0,5-1,7-2.9l45.4-45.4l45.4,45.4c1.9,1.9,4.4,2.9,7,2.9
		c2.6,0,5-1,7-2.9c3.8-3.8,3.8-10,0-13.8l-45.6-45.4l45.4-45.4C259,146.6,259,140.5,255.2,136.6L255.2,136.6z M255.2,136.6"/>
</g>
</svg>
