<?xml version="1.0" encoding="utf-8"?>
<!-- Generator: Adobe Illustrator 20.0.0, SVG Export Plug-In . SVG Version: 6.00 Build 0)  -->
<svg version="1.1" id="Layer_1" xmlns="http://www.w3.org/2000/svg" xmlns:xlink="http://www.w3.org/1999/xlink" x="0px" y="0px"
	 viewBox="0 0 47.8 38.6" style="enable-background:new 0 0 47.8 38.6;" xml:space="preserve">
<g>
	<path d="M29.9,18.5l-8.8-5.6c-0.2-0.2-0.6-0.2-0.8,0c-0.3,0.1-0.4,0.4-0.4,0.7v11.2c0,0.3,0.2,0.6,0.4,0.7c0.1,0.1,0.3,0.1,0.4,0.1
		c0.1,0,0.3,0,0.4-0.1l8.8-5.6c0.2-0.1,0.4-0.4,0.4-0.7C30.2,18.9,30.1,18.6,29.9,18.5L29.9,18.5z M21.4,23.3V15l6.5,4.1L21.4,23.3z
		 M21.4,23.3"/>
	<path d="M46.2,0.8H1.4C1,0.8,0.6,1.1,0.6,1.6v35.2c0,0.4,0.4,0.8,0.8,0.8h44.8c0.4,0,0.8-0.4,0.8-0.8V1.6C47,1.1,46.7,0.8,46.2,0.8
		L46.2,0.8z M8.6,18.4H2.2v-7.2h6.4V18.4z M2.2,19.9h6.4v7.2H2.2V19.9z M10.2,27.9V2.4h27.2v33.6H10.2V27.9z M45.4,18.4H39v-7.2h6.4
		V18.4z M39,19.9h6.4v7.2H39V19.9z M45.4,2.4v7.2H39V2.4H45.4z M2.2,2.4h6.4v7.2H2.2V2.4z M2.2,35.9v-7.2h6.4v7.2H2.2z M45.4,35.9
		H39v-7.2h6.4V35.9z M45.4,35.9"/>
</g>
</svg>
